<svg id="Layer_1" data-name="Layer 1" xmlns="http://www.w3.org/2000/svg" viewBox="0 0 500 500"><defs><style>.cls-1{fill:#7cc799;}.cls-2{fill:#221f1f;}.cls-3{fill:#dbe6fd;}.cls-4{fill:#17afdc;}.cls-11,.cls-5{fill:#fccc38;}.cls-6{fill:#5358a1;}.cls-7{fill:#f4393d;}.cls-8{fill:#f7edd3;}.cls-9{fill:none;}.cls-10{fill:#fff;}.cls-11,.cls-12{stroke:#000;stroke-width:4px;}.cls-11{stroke-miterlimit:10;}.cls-12{fill:#999;stroke-linejoin:round;}</style></defs><title>ideation_bg</title><circle class="cls-1" cx="377.42" cy="343.65" r="11"/><path class="cls-2" d="M370.48,340.65c-1.15,3.91-.06,8.12,4,9.86a7.48,7.48,0,1,0,5.52-13.9c-4.26-1.51-8.19,1-9.75,4.94-1.65,4.22-8,1.28-6.4-2.93a14.92,14.92,0,1,1-.27.9C364.81,335.24,371.77,336.31,370.48,340.65Z"/><path class="cls-1" d="M341.09,404.23,356.35,389Z"/><path class="cls-2" d="M337.7,401.43,353,386.17c4-4,10.8,1.59,6.78,5.6L344.48,407c-4,4-10.8-1.59-6.78-5.6L353,386.17c4-4,10.8,1.59,6.78,5.6L344.48,407C340.51,411,333.68,405.44,337.7,401.43Z"/><path class="cls-1" d="M341.09,388.23l15.63,15.63Z"/><path class="cls-2" d="M343.89,384.84l15.63,15.63c4,4-1.59,10.8-5.6,6.78l-15.63-15.63c-4-4,1.59-10.8,5.6-6.78l15.63,15.63c4,4-1.59,10.8-5.6,6.78l-15.63-15.63C334.33,387.65,339.88,380.82,343.89,384.84Z"/><path class="cls-3" d="M339.25,254.86c0,21.86-8.82,51.79-23.28,77.38-8.71,15.41-27.69,35.2-27.69,52.87H250.05V172.74C299.31,172.74,339.25,208.31,339.25,254.86Z"/><path class="cls-4" d="M250.05,245h38.23v51H250.05Z"/><path class="cls-5" d="M160.86,254.86c0,21.86,8.82,51.79,23.28,77.38,8.71,15.41,27.69,35.2,27.69,52.87h38.22V172.74C200.79,172.74,160.86,208.31,160.86,254.86Z"/><path class="cls-6" d="M285.07,402.1H215a8.51,8.51,0,0,1-8.5-8.5v-.29a8,8,0,0,1,8.1-7.92l.4,0h70a8,8,0,0,1,8.48,7.5c0,.13,0,.26,0,.4v.29A8.5,8.5,0,0,1,285.07,402.1Z"/><rect class="cls-6" x="205.46" y="402.1" width="89.19" height="17.29" rx="8.49" ry="8.49"/><path class="cls-7" d="M242.81,211.45,241,220.32a50.33,50.33,0,0,0-8.09,2.18l-6.08-6.8A59.42,59.42,0,0,0,214.31,223l2.81,8.57a52,52,0,0,0-5.93,5.94l-8.57-2.82a59,59,0,0,0-7.29,12.47l6.79,6.09a50.22,50.22,0,0,0-2.18,8.08l-8.86,1.87a54,54,0,0,0,0,14.48l8.86,1.87a50.22,50.22,0,0,0,2.18,8.08l-6.79,6.09a59.24,59.24,0,0,0,7.29,12.47l8.57-2.82a50.32,50.32,0,0,0,5.93,5.93l-2.82,8.58a60.19,60.19,0,0,0,12.48,7.29l6.08-6.8a50.33,50.33,0,0,0,8.09,2.18l1.86,8.87a58.42,58.42,0,0,0,7.24.48V211A58.42,58.42,0,0,0,242.81,211.45Z"/><path class="cls-8" d="M250.05,304.41a34,34,0,0,1,0-68"/><circle class="cls-5" cx="275.54" cy="206.72" r="8.49"/><circle class="cls-5" cx="309.52" cy="227.96" r="8.49"/><circle class="cls-5" cx="330.75" cy="283.17" r="8.49"/><circle class="cls-5" cx="284.03" cy="334.14" r="8.49"/><path d="M295,374.22l-7.9-3.13a71,71,0,0,1,4-8.3l7.43,4.11a63.79,63.79,0,0,0-3.5,7.32Z"/><path d="M302.77,359.74l-7.13-4.61c1.6-2.46,3.26-4.9,4.93-7.3l7,4.86c-1.61,2.32-3.22,4.67-4.77,7.05Z"/><path d="M312.51,345.58l-7-4.84c1.67-2.41,3.27-4.77,4.7-7l7.19,4.52C315.93,340.6,314.26,343.06,312.51,345.58Z"/><path d="M321.88,330.46l-7.5-4q2-3.72,3.82-7.55l7.67,3.66Q324,326.55,321.88,330.46Z"/><path d="M329.51,314.5l-7.82-3.33c1.11-2.61,2.16-5.24,3.15-7.86l8,3Q331.25,310.41,329.51,314.5Z"/><path d="M343.14,263.19l-8.47-.71c.22-2.59.33-5.11.33-7.48v-.78l8.49-.06V255C343.5,257.61,343.38,260.37,343.14,263.19Z"/><path d="M334.47,246.06a73.26,73.26,0,0,0-1.41-8.05l8.27-1.93a82.69,82.69,0,0,1,1.58,9Z"/><path d="M330.76,230.17a75.55,75.55,0,0,0-3.17-7.54l7.63-3.72a80.58,80.58,0,0,1,3.54,8.42Z"/><path d="M323.6,215.5a76.2,76.2,0,0,0-4.75-6.68l6.66-5.29a83.84,83.84,0,0,1,5.27,7.43Z"/><path d="M313.42,202.67a77.69,77.69,0,0,0-6.06-5.55l5.42-6.55a88.31,88.31,0,0,1,6.69,6.14Z"/><path d="M300.77,192.18c-2.26-1.51-4.63-3-7.06-4.26l4-7.47c2.67,1.44,5.28,3,7.76,4.68Z"/><path d="M286.27,184.35c-2.49-1-5.09-2-7.74-2.85l2.57-8.1c2.9.92,5.76,2,8.49,3.14Z"/><path d="M270.54,179.35c-2.67-.59-5.41-1.07-8.15-1.42l1.09-8.43c3,.39,6,.91,8.9,1.56Z"/><path class="cls-9" d="M245.81,381V334c-1.13-.09-2.28-.19-3.51-.34a4.25,4.25,0,0,1-3.65-3.34l-1.29-6.15c-1.07-.26-2.13-.54-3.19-.86L229.94,328a4.25,4.25,0,0,1-4.83,1.07,63.72,63.72,0,0,1-13.37-7.81,4.25,4.25,0,0,1-1.47-4.71l1.95-5.93c-.81-.76-1.58-1.54-2.34-2.34l-5.94,2a4.31,4.31,0,0,1-4.71-1.48,63.46,63.46,0,0,1-7.81-13.37,4.26,4.26,0,0,1,1.07-4.83l4.73-4.23c-.32-1.05-.6-2.1-.86-3.16l-6.6-1.31a4.25,4.25,0,0,1-3.42-4.17V263.19a4.25,4.25,0,0,1,3.42-4.17l6.6-1.32c.26-1.05.54-2.1.86-3.15l-4.73-4.23a4.26,4.26,0,0,1-1.07-4.83,63.46,63.46,0,0,1,7.81-13.37,4.27,4.27,0,0,1,3.4-1.68,4.21,4.21,0,0,1,1.31.2l5.94,2q1.14-1.2,2.34-2.34l-1.95-5.94a4.24,4.24,0,0,1,1.48-4.71,64,64,0,0,1,13.36-7.8,4.2,4.2,0,0,1,4.83,1.07l4.23,4.72c1.06-.32,2.13-.61,3.19-.86l1.3-6.15a4.23,4.23,0,0,1,3.64-3.34c1.23-.15,2.38-.26,3.51-.34V177.23c-45.59,2-80.7,35.42-80.7,77.77,0,21.3,8.92,50.86,22.73,75.3,2.44,4.32,5.77,9.06,9.29,14.09,8,11.37,16.84,24.1,18.58,36.62Z"/><rect class="cls-9" x="254.3" y="249.19" width="29.73" height="42.47"/><path class="cls-9" d="M220.62,266.22a29.69,29.69,0,0,0,25.19,33.6V241A29.69,29.69,0,0,0,220.62,266.22Z"/><path class="cls-9" d="M279.79,206.72a4.25,4.25,0,1,0-4.25,4.25A4.25,4.25,0,0,0,279.79,206.72Z"/><path class="cls-9" d="M214.62,389.48a3.84,3.84,0,0,0-3.83,3.68v.14a4.32,4.32,0,0,0,4.25,4.4h70a4.26,4.26,0,0,0,4.25-4.25c0-.14,0-.28,0-.43a3.88,3.88,0,0,0-3.87-3.53,2.17,2.17,0,0,0-.36,0H215l-.25,0Z"/><path class="cls-9" d="M286.16,406.2H214a4.26,4.26,0,0,0-4.25,4.24v.15A4.32,4.32,0,0,0,214,415h72.21a4.24,4.24,0,0,0,4.24-4.25.76.76,0,0,0,0-.15A4.32,4.32,0,0,0,286.16,406.2Z"/><path class="cls-9" d="M284,338.39a4.25,4.25,0,1,0-4.24-4.25A4.25,4.25,0,0,0,284,338.39Z"/><path class="cls-9" d="M330.75,278.92a4.25,4.25,0,1,0,4.25,4.25A4.25,4.25,0,0,0,330.75,278.92Z"/><path class="cls-9" d="M309.52,223.71a4.25,4.25,0,1,0,4.24,4.25A4.25,4.25,0,0,0,309.52,223.71Z"/><path class="cls-9" d="M241.7,224.5a46.22,46.22,0,0,0-7.4,2,4.42,4.42,0,0,1-1.43.24,4.23,4.23,0,0,1-3.17-1.41l-4-4.45a54.62,54.62,0,0,0-6.4,3.75l1.85,5.61a4.26,4.26,0,0,1-1.29,4.56,46.67,46.67,0,0,0-5.44,5.45,4.29,4.29,0,0,1-3.25,1.49,4.22,4.22,0,0,1-1.31-.21l-5.62-1.84a55.93,55.93,0,0,0-3.75,6.39l4.45,4a4.26,4.26,0,0,1,1.17,4.6,45.28,45.28,0,0,0-2,7.41,4.27,4.27,0,0,1-3.35,3.41l-5.94,1.18v7.52l5.94,1.18a4.24,4.24,0,0,1,3.34,3.41,45.94,45.94,0,0,0,2,7.4,4.27,4.27,0,0,1-1.16,4.6l-4.46,4a54.5,54.5,0,0,0,3.75,6.39l5.61-1.84a4.28,4.28,0,0,1,4.57,1.28,47.28,47.28,0,0,0,5.43,5.44,4.25,4.25,0,0,1,1.3,4.57l-1.85,5.61a54.62,54.62,0,0,0,6.4,3.75l4-4.45a4.26,4.26,0,0,1,3.16-1.42,4.68,4.68,0,0,1,1.44.25,46.22,46.22,0,0,0,7.4,2,4.25,4.25,0,0,1,3.4,3.31l.71,3.34v-14.6a38.27,38.27,0,0,1-34-38h0a38.27,38.27,0,0,1,34-38v-14.6l-.71,3.34A4.24,4.24,0,0,1,241.7,224.5Z"/><path d="M330.78,272.18a11,11,0,0,0-10.33,7.33,1.75,1.75,0,0,1-1.66,1.16H292.53a1.75,1.75,0,0,1-1.75-1.75v-17a1.75,1.75,0,0,1,1.75-1.75h17a2.5,2.5,0,0,0,2.49-2.49V239.92a1.76,1.76,0,0,1,1.17-1.66,11,11,0,1,0-7.33,0,1.76,1.76,0,0,1,1.17,1.65v13.53a1.75,1.75,0,0,1-1.75,1.75H292.53a1.75,1.75,0,0,1-1.75-1.75V245a2.5,2.5,0,0,0-2.5-2.5h-8.49A1.76,1.76,0,0,1,278,240.7v-22A1.75,1.75,0,0,1,279.2,217a11,11,0,1,0-7.33,0,1.75,1.75,0,0,1,1.17,1.65v22a1.75,1.75,0,0,1-1.75,1.75h-17a1.75,1.75,0,0,1-1.75-1.75V172.89a2.5,2.5,0,0,0-2.49-2.5h0c-51.41,0-91.69,37.17-91.69,84.61,0,22.73,9,52.85,23.61,78.62,2.59,4.58,6,9.44,9.6,14.58l0,.06c7.37,10.51,16.55,23.59,17.53,35a1.73,1.73,0,0,1-.73,1.58,10.29,10.29,0,0,0-4.36,8.62,10.94,10.94,0,0,0,2.42,6.82,1.76,1.76,0,0,1-.13,2.35,11.36,11.36,0,0,0-3.38,8.14,11,11,0,0,0,11,11h72.21a11.07,11.07,0,0,0,11-11.14v-.12a11,11,0,0,0-3.37-7.91,1.75,1.75,0,0,1-.16-2.35,11.4,11.4,0,0,0,2.44-7,10.45,10.45,0,0,0-10.43-10.41H254.3a1.75,1.75,0,0,1-1.75-1.75V300.16a1.75,1.75,0,0,1,1.75-1.75h8.5a1.75,1.75,0,0,1,1.75,1.75V312.9a2.49,2.49,0,0,0,2.49,2.5h12.75a1.75,1.75,0,0,1,1.75,1.75v5a1.76,1.76,0,0,1-1.17,1.65,11,11,0,1,0,7.33,0,1.76,1.76,0,0,1-1.17-1.65V312.9a2.5,2.5,0,0,0-2.5-2.49H271.29a1.75,1.75,0,0,1-1.75-1.75v-8.5a1.75,1.75,0,0,1,1.75-1.75h17a2.5,2.5,0,0,0,2.5-2.49v-8.5a1.75,1.75,0,0,1,1.75-1.75h26.26a1.73,1.73,0,0,1,1.65,1.16,11,11,0,0,0,10.34,7.29,11,11,0,0,0,9.91-6.27,11,11,0,0,0-9.91-15.67ZM303.52,228a6,6,0,1,1,6,6A6,6,0,0,1,303.52,228ZM246,234.19a36.47,36.47,0,0,0,0,72.48,1.75,1.75,0,0,1,1.56,1.74V323a1.75,1.75,0,0,1-1.57,1.74h-.19a1.76,1.76,0,0,1-1.71-1.39l-.7-3.34a2.5,2.5,0,0,0-2-1.95,47.32,47.32,0,0,1-7.68-2.07,2.7,2.7,0,0,0-.85-.14,2.46,2.46,0,0,0-1.85.83l-4,4.45a1.75,1.75,0,0,1-1.3.58,1.82,1.82,0,0,1-.79-.18,58,58,0,0,1-6.59-3.87,1.76,1.76,0,0,1-.68-2l1.84-5.61a2.49,2.49,0,0,0-.76-2.69,48.45,48.45,0,0,1-5.64-5.64,2.51,2.51,0,0,0-1.91-.87,2.64,2.64,0,0,0-.78.12l-5.6,1.85a1.7,1.7,0,0,1-.55.08,1.74,1.74,0,0,1-1.44-.76,55.91,55.91,0,0,1-3.88-6.6,1.76,1.76,0,0,1,.4-2.09l4.46-4a2.49,2.49,0,0,0,.68-2.71,48.25,48.25,0,0,1-2.07-7.67,2.47,2.47,0,0,0-2-2l-5.94-1.19a1.75,1.75,0,0,1-1.4-1.71v-7.52a1.77,1.77,0,0,1,1.4-1.72l5.94-1.18a2.47,2.47,0,0,0,2-2,48.66,48.66,0,0,1,2.07-7.68,2.47,2.47,0,0,0-.68-2.7l-4.46-4a1.76,1.76,0,0,1-.4-2.09,57.32,57.32,0,0,1,3.88-6.6,1.75,1.75,0,0,1,1.44-.77,1.71,1.71,0,0,1,.55.09l5.61,1.85a2.53,2.53,0,0,0,2.69-.76,48.45,48.45,0,0,1,5.64-5.64,2.5,2.5,0,0,0,.75-2.68l-1.84-5.62a1.75,1.75,0,0,1,.68-2,58,58,0,0,1,6.59-3.87,1.7,1.7,0,0,1,.79-.19,1.76,1.76,0,0,1,1.3.59l4,4.45a2.52,2.52,0,0,0,1.87.83,2.64,2.64,0,0,0,.84-.14,47.32,47.32,0,0,1,7.68-2.07,2.49,2.49,0,0,0,2-1.94l.7-3.35a1.76,1.76,0,0,1,1.71-1.39H246a1.75,1.75,0,0,1,1.57,1.74v14.6A1.75,1.75,0,0,1,246,234.19Zm1.56,6.85v58.78a1.72,1.72,0,0,1-.61,1.32,1.74,1.74,0,0,1-1.14.43,1,1,0,0,1-.25,0A31.42,31.42,0,0,1,218.89,266a31.62,31.62,0,0,1,26.67-26.67h.25a1.78,1.78,0,0,1,1.14.42A1.76,1.76,0,0,1,247.56,241ZM195.7,345.39c-3.56-5.07-6.91-9.84-9.38-14.23-13.95-24.68-23-54.58-23-76.16a76.16,76.16,0,0,1,23.79-55.3c15.26-14.65,36.06-23.25,58.58-24.22h.08a1.74,1.74,0,0,1,1.75,1.75V206.9a1.76,1.76,0,0,1-1.62,1.75c-1.3.09-2.39.2-3.43.32a2.5,2.5,0,0,0-2.14,2l-1.3,6.15a1.7,1.7,0,0,1-1.3,1.34c-1,.25-2.07.53-3.09.84a1.79,1.79,0,0,1-.51.07,1.73,1.73,0,0,1-1.3-.58L228.64,214a2.52,2.52,0,0,0-1.86-.83,2.36,2.36,0,0,0-1,.2,62.06,62.06,0,0,0-13,7.58,2.51,2.51,0,0,0-.88,2.78l1.95,5.94a1.77,1.77,0,0,1-.46,1.82c-.75.7-1.51,1.47-2.27,2.27a1.77,1.77,0,0,1-1.27.54,1.7,1.7,0,0,1-.55-.08l-5.93-1.95a2.53,2.53,0,0,0-.77-.12,2.56,2.56,0,0,0-2,1,62,62,0,0,0-7.59,13,2.48,2.48,0,0,0,.63,2.83l4.72,4.23a1.74,1.74,0,0,1,.51,1.81c-.3,1-.58,2-.82,3.06a1.75,1.75,0,0,1-1.36,1.31l-6.61,1.32a2.51,2.51,0,0,0-2,2.45v14.48a2.51,2.51,0,0,0,2,2.45l6.61,1.32a1.74,1.74,0,0,1,1.36,1.31c.24,1,.52,2,.82,3.06a1.74,1.74,0,0,1-.51,1.81l-4.72,4.23a2.49,2.49,0,0,0-.63,2.84,62.18,62.18,0,0,0,7.59,13,2.53,2.53,0,0,0,2.78.87l5.93-1.95a1.7,1.7,0,0,1,.55-.08,1.77,1.77,0,0,1,1.27.54c.78.83,1.52,1.57,2.27,2.27a1.77,1.77,0,0,1,.46,1.82l-1.95,5.93a2.52,2.52,0,0,0,.87,2.78,62.47,62.47,0,0,0,13,7.6,2.7,2.7,0,0,0,1,.19,2.52,2.52,0,0,0,1.87-.83l4.23-4.72a1.73,1.73,0,0,1,1.3-.58,1.79,1.79,0,0,1,.51.07c1,.31,2.06.59,3.09.83a1.73,1.73,0,0,1,1.3,1.35l1.3,6.15a2.5,2.5,0,0,0,2.14,2c1.05.13,2.11.23,3.43.33a1.76,1.76,0,0,1,1.62,1.75V381a1.75,1.75,0,0,1-1.75,1.75h-30.1a1.75,1.75,0,0,1-1.74-1.51C212.28,369,203.47,356.48,195.7,345.39Zm96.45,65.4a6,6,0,0,1-6,5.95H213.92a6.08,6.08,0,0,1-6-6.18v-.16a6,6,0,0,1,6-5.95h72.21a6.07,6.07,0,0,1,6,6.17A1,1,0,0,1,292.15,410.79Zm-7.15-23h.43a5.6,5.6,0,0,1,5.61,5.12q0,.31,0,.63a6,6,0,0,1-6,6H215a6.06,6.06,0,0,1-6-6.18v-.2a5.57,5.57,0,0,1,5.58-5.34H285Zm5-53.61a6,6,0,1,1-6-6A6,6,0,0,1,290,334.14ZM269.54,206.72a6,6,0,1,1,6,6A6,6,0,0,1,269.54,206.72Zm16.24,85a1.75,1.75,0,0,1-1.75,1.75H254.3a1.75,1.75,0,0,1-1.75-1.75V249.19a1.75,1.75,0,0,1,1.75-1.75H284a1.75,1.75,0,0,1,1.75,1.75Zm45-2.5h0a6,6,0,1,1,6-6A6,6,0,0,1,330.75,289.17Z"/><path class="cls-10" d="M284,339.26A5.12,5.12,0,1,0,284,329h0a5.12,5.12,0,1,0,0,10.24Zm0-9.37a4.25,4.25,0,1,1-4.24,4.25A4.25,4.25,0,0,1,284,329.89Z"/><path class="cls-10" d="M278,334.14a6,6,0,1,0,6-6A6,6,0,0,0,278,334.14Zm6-5.12h0a5.12,5.12,0,1,1-5.12,5.12A5.13,5.13,0,0,1,284,329Z"/><path class="cls-11" d="M220.32,420.48v10.18s13.18,19.84,29.52,19.84,29.18-21,29.18-21v-9.33Z"/><path class="cls-12" d="M249.84,450.5c7.18,0,13.67-4.05,18.71-8.59H230.44C235.63,446.39,242.41,450.5,249.84,450.5Z"/><path class="cls-11" d="M279,429.49v-9.33l-58.7.32v10.18a62.65,62.65,0,0,0,10.12,11.25h38.11A63.58,63.58,0,0,0,279,429.49Z"/></svg>