<svg id="Layer_1" data-name="Layer 1" xmlns="http://www.w3.org/2000/svg" viewBox="0 0 500 500"><defs><style>.cls-1{fill:#dbe6fd;}.cls-2{fill:#ed1e79;}.cls-3,.cls-4{fill:none;}.cls-4,.cls-5{stroke:#000;stroke-miterlimit:10;stroke-width:6px;}.cls-5{fill:#736357;}.cls-6{fill:#ff7f00;}</style></defs><title>experliment_bg</title><path class="cls-1" d="M414.76,293.09A19.14,19.14,0,0,0,401.87,275a19.15,19.15,0,0,0-28.29-25.34,19.05,19.05,0,0,0-32.89,0A19.17,19.17,0,0,0,312.4,275a19.09,19.09,0,0,0,0,36.12,19.16,19.16,0,0,0,28.29,25.35,19.07,19.07,0,0,0,32.89,0,19.17,19.17,0,0,0,28.29-25.35A19.13,19.13,0,0,0,414.76,293.09Z"/><path class="cls-2" d="M386,283.49H366.74V264.28H347.53v19.21H328.32V302.7h19.21v19.21h19.21V302.7H386Z"/><path d="M366.74,326.71H347.53a4.8,4.8,0,0,1-4.8-4.8V307.5H328.32a4.8,4.8,0,0,1-4.8-4.8V283.49a4.8,4.8,0,0,1,4.8-4.8h14.41V264.28a4.8,4.8,0,0,1,4.8-4.8h19.21a4.8,4.8,0,0,1,4.8,4.8v14.41H386a4.8,4.8,0,0,1,4.8,4.8V302.7a4.8,4.8,0,0,1-4.8,4.8H371.54v14.41A4.8,4.8,0,0,1,366.74,326.71Zm-14.41-9.6h9.61V302.7a4.8,4.8,0,0,1,4.8-4.8h14.41v-9.61H366.74a4.8,4.8,0,0,1-4.8-4.8V269.08h-9.61v14.41a4.8,4.8,0,0,1-4.8,4.8H333.12v9.61h14.41a4.8,4.8,0,0,1,4.8,4.8Z"/><path class="cls-3" d="M400.28,279.57a4.81,4.81,0,0,1-2.94-6.13,4.53,4.53,0,0,1,.55-1.1,14.35,14.35,0,0,0-21.2-19,4.8,4.8,0,0,1-6.77-.56,4.15,4.15,0,0,1-.46-.64,14.27,14.27,0,0,0-24.65,0,4.81,4.81,0,0,1-6.59,1.66,4.7,4.7,0,0,1-.64-.46,14.26,14.26,0,0,0-9.26-3.48,14.4,14.4,0,0,0-11.94,22.47,4.8,4.8,0,0,1-1.29,6.67,5,5,0,0,1-1.1.56,14.29,14.29,0,0,0,0,27.05,4.83,4.83,0,0,1,2.39,7.23,14.34,14.34,0,0,0,21.2,19,4.84,4.84,0,0,1,3.11-1.14h0a5.27,5.27,0,0,1,.79.07,4.77,4.77,0,0,1,3.33,2.28,14.27,14.27,0,0,0,24.65,0,4.8,4.8,0,0,1,6.59-1.67,5.75,5.75,0,0,1,.64.46,14.36,14.36,0,0,0,21.2-19,4.8,4.8,0,0,1,1.29-6.67,4.56,4.56,0,0,1,1.1-.56,14.29,14.29,0,0,0,0-27.05Z"/><path class="cls-3" d="M400.31,279.5a4.74,4.74,0,0,1-2.9-6,4.2,4.2,0,0,1,.54-1.08,14.43,14.43,0,0,0-21.3-19.1,4.72,4.72,0,0,1-6.67-.54,4.3,4.3,0,0,1-.45-.63,14.34,14.34,0,0,0-24.78,0,4.67,4.67,0,0,1-4.07,2.32,4.63,4.63,0,0,1-3-1.12,14.44,14.44,0,0,0-21.32,19.08,4.74,4.74,0,0,1-1.27,6.57,4.55,4.55,0,0,1-1.08.54,14.39,14.39,0,0,0-9,18.24,14.47,14.47,0,0,0,9,9,4.72,4.72,0,0,1,2.9,6,4.37,4.37,0,0,1-.54,1.08,14.43,14.43,0,0,0,21.3,19.1,4.75,4.75,0,0,1,3.07-1.13,5.12,5.12,0,0,1,.78.06,4.71,4.71,0,0,1,3.27,2.24,14.35,14.35,0,0,0,24.78,0,4.73,4.73,0,0,1,6.49-1.64,4.61,4.61,0,0,1,.62.44,14.41,14.41,0,0,0,23.8-11A14.48,14.48,0,0,0,398,313.8a4.71,4.71,0,0,1,2.35-7.1,14.39,14.39,0,0,0,9-18.24A14.44,14.44,0,0,0,400.31,279.5Z"/><path d="M407.27,274.63l-1.44-.9.61-1.6A22,22,0,0,0,386,242.34,21.63,21.63,0,0,0,375.67,245l-1.42.77-1.1-1.19c-.4-.44-.83-.86-1.27-1.26a21.77,21.77,0,0,0-30.76,1.26l-1.1,1.19L338.6,245a21.64,21.64,0,0,0-10.29-2.64,22,22,0,0,0-20.48,29.79l.61,1.6-1.44.9a22,22,0,0,0-6.9,6.9,21.77,21.77,0,0,0,6.9,30l1.44.91-.61,1.59a21.85,21.85,0,0,0,30.77,27.16l1.43-.78,1.1,1.2a21.65,21.65,0,0,0,15.93,7h.15a21.65,21.65,0,0,0,15.93-7l1.1-1.2,1.43.78A21.75,21.75,0,0,0,386,343.85a22.12,22.12,0,0,0,7.83-1.45,22,22,0,0,0,12.65-28.35l-.61-1.59,1.44-.91a21.78,21.78,0,0,0,0-36.92Zm3.09,25.68a16.29,16.29,0,0,1-9.41,8.28,2.34,2.34,0,0,0-.61.31,2.72,2.72,0,0,0-.73,3.78,16.43,16.43,0,0,1-24.28,21.72,2.38,2.38,0,0,0-.35-.24,2.79,2.79,0,0,0-3.74.94,16.33,16.33,0,0,1-28.22,0,2.74,2.74,0,0,0-4.1-.66,16.42,16.42,0,0,1-24.25-21.75,2.47,2.47,0,0,0,.3-.61,2.67,2.67,0,0,0-.11-2.09,2.74,2.74,0,0,0-1.56-1.39,16.46,16.46,0,0,1-10.19-10.2,16.36,16.36,0,0,1,10.21-20.78,2.51,2.51,0,0,0,.61-.31,2.74,2.74,0,0,0,1.15-1.74,2.71,2.71,0,0,0-.42-2.05,16.42,16.42,0,0,1,24.28-21.71,2.38,2.38,0,0,0,.35.24,2.72,2.72,0,0,0,3.74-.94,16.33,16.33,0,0,1,28.22,0,2.46,2.46,0,0,0,.25.34,2.8,2.8,0,0,0,3.85.32,16.42,16.42,0,0,1,24.25,21.75,2.91,2.91,0,0,0-.31.61,2.75,2.75,0,0,0,1.68,3.48,16.44,16.44,0,0,1,10.19,10.2A16.25,16.25,0,0,1,410.36,300.31Z"/><path d="M379.5,368.86h9.6v9.6h-9.6Z"/><path d="M389.1,354.45h9.61v9.61H389.1Z"/><circle class="cls-4" cx="310.39" cy="397.04" r="53.46"/><path class="cls-5" d="M266.45,366.76h88.49l8.91,37.36h0c3.46,0,6.26-3.09,6.26-6.89V377.35c0-25.81-19-46.73-42.48-46.73H292.71c-23.46,0-42.48,20.92-42.48,46.73v20.19c0,3.8,2.8,6.89,6.26,6.89h.45Z"/><path class="cls-4" d="M320.91,423.66a10.29,10.29,0,0,1-20.58,0"/><path d="M212,370.21h9.6v9.6H212Z"/><path d="M221.59,355.8h9.61v9.61h-9.61Z"/><path class="cls-1" d="M250.41,293.37a19.16,19.16,0,0,0-12.9-18.06A19.15,19.15,0,0,0,209.22,250a19.06,19.06,0,0,0-32.89,0A19.17,19.17,0,0,0,148,275.31a19.09,19.09,0,0,0,0,36.12,19.15,19.15,0,0,0,28.29,25.34,19.06,19.06,0,0,0,32.89,0,19.17,19.17,0,0,0,28.29-25.34A19.16,19.16,0,0,0,250.41,293.37Z"/><path class="cls-6" d="M164,283.77h57.63V303H164Z"/><path d="M221.59,307.78H164a4.8,4.8,0,0,1-4.8-4.8V283.77A4.8,4.8,0,0,1,164,279h57.63a4.8,4.8,0,0,1,4.8,4.81V303A4.8,4.8,0,0,1,221.59,307.78Zm-52.83-9.61h48v-9.6h-48Z"/><path class="cls-3" d="M235.92,279.84a4.79,4.79,0,0,1-2.94-6.12,4.53,4.53,0,0,1,.55-1.1,14.35,14.35,0,0,0-21.2-19,4.8,4.8,0,0,1-6.77-.56,4.7,4.7,0,0,1-.46-.64,14.26,14.26,0,0,0-24.65,0,4.81,4.81,0,0,1-6.59,1.66,4.7,4.7,0,0,1-.64-.46,14.21,14.21,0,0,0-9.26-3.48A14.4,14.4,0,0,0,152,272.62a4.8,4.8,0,0,1-1.29,6.67,4.53,4.53,0,0,1-1.1.55,14.29,14.29,0,0,0,0,27.06,4.81,4.81,0,0,1,3,6.12,5,5,0,0,1-.56,1.1,14.35,14.35,0,0,0,21.2,19,4.79,4.79,0,0,1,3.11-1.14h0a4.15,4.15,0,0,1,.79.07,4.78,4.78,0,0,1,3.33,2.27,14.25,14.25,0,0,0,24.65,0,4.81,4.81,0,0,1,6.59-1.66,5.75,5.75,0,0,1,.64.46,14.21,14.21,0,0,0,9.26,3.48,14.4,14.4,0,0,0,11.94-22.47,4.8,4.8,0,0,1,1.29-6.67,4.53,4.53,0,0,1,1.1-.55,14.29,14.29,0,0,0,0-27.06Z"/><path class="cls-3" d="M236,279.77a4.73,4.73,0,0,1-2.91-6,4.55,4.55,0,0,1,.54-1.08,14.42,14.42,0,0,0-21.3-19.1,4.74,4.74,0,0,1-6.67-.55,4.23,4.23,0,0,1-.45-.62,14.34,14.34,0,0,0-24.78,0,4.68,4.68,0,0,1-4.07,2.31,4.81,4.81,0,0,1-2.42-.66,5.79,5.79,0,0,1-.62-.45,14.34,14.34,0,0,0-9.32-3.51,14.48,14.48,0,0,0-12,22.59,4.73,4.73,0,0,1-1.27,6.56,4.58,4.58,0,0,1-1.08.55,14.38,14.38,0,0,0-9,18.24,14.49,14.49,0,0,0,9,9,4.72,4.72,0,0,1,2.9,6,4.43,4.43,0,0,1-.54,1.09,14.42,14.42,0,0,0,21.3,19.09,4.74,4.74,0,0,1,3.07-1.12,5.12,5.12,0,0,1,.78.06,4.7,4.7,0,0,1,3.27,2.23,14.34,14.34,0,0,0,24.78,0,4.75,4.75,0,0,1,4.07-2.31,4.81,4.81,0,0,1,2.42.66,4.94,4.94,0,0,1,.62.45,14.44,14.44,0,0,0,21.32-19.08,4.73,4.73,0,0,1,1.27-6.56,5,5,0,0,1,1.08-.55,14.35,14.35,0,0,0,9-18.24A14.48,14.48,0,0,0,236,279.77Z"/><path d="M242.91,274.91l-1.44-.91.61-1.59a21.86,21.86,0,0,0-30.77-27.16l-1.42.78-1.1-1.19c-.4-.44-.82-.86-1.27-1.27a21.78,21.78,0,0,0-30.76,1.27l-1.1,1.19-1.42-.78a21.9,21.9,0,0,0-30.77,27.16l.62,1.59-1.45.91A21.79,21.79,0,0,0,133,298.25a21.64,21.64,0,0,0,9.67,13.58l1.45.91-.62,1.59a21.86,21.86,0,0,0,30.77,27.16l1.43-.78,1.1,1.2a21.64,21.64,0,0,0,15.94,7h.14a21.68,21.68,0,0,0,15.94-7l1.09-1.2,1.43.78a21.9,21.9,0,0,0,30.77-27.16l-.61-1.59,1.44-.91a21.86,21.86,0,0,0,6.9-6.9,21.77,21.77,0,0,0-6.9-30ZM246,300.59a16.27,16.27,0,0,1-9.41,8.27,3.19,3.19,0,0,0-.61.31,2.74,2.74,0,0,0-1.15,1.75,2.68,2.68,0,0,0,.42,2A16.43,16.43,0,0,1,211,334.68a2.41,2.41,0,0,0-.35-.25,2.8,2.8,0,0,0-3.74.95,16.34,16.34,0,0,1-28.22,0,2.73,2.73,0,0,0-4.1-.67A16.42,16.42,0,0,1,150.31,313a3,3,0,0,0,.31-.62,2.73,2.73,0,0,0-1.68-3.47,16.45,16.45,0,0,1-10.19-10.21A16.36,16.36,0,0,1,149,277.88a2.7,2.7,0,0,0,.61-.31,2.74,2.74,0,0,0,1.15-1.74,2.7,2.7,0,0,0-.42-2.05,16.43,16.43,0,0,1,24.28-21.72,2.41,2.41,0,0,0,.35.25,2.74,2.74,0,0,0,3.74-.95,16.34,16.34,0,0,1,28.22,0,3.79,3.79,0,0,0,.25.35,2.82,2.82,0,0,0,3.85.32,16.42,16.42,0,0,1,24.25,21.74,2.76,2.76,0,0,0-.31.62,2.73,2.73,0,0,0,1.68,3.47,16.45,16.45,0,0,1,10.19,10.21A16.25,16.25,0,0,1,246,300.59Z"/><circle class="cls-4" cx="142.67" cy="397.04" r="53.46"/><path class="cls-5" d="M98.72,366.76h88.5l8.9,37.36h0c3.46,0,6.26-3.09,6.26-6.89V377.35c0-25.81-19-46.73-42.48-46.73H125c-23.47,0-42.49,20.92-42.49,46.73v20.19c0,3.8,2.8,6.89,6.26,6.89h.45Z"/><path class="cls-4" d="M132.6,434a10.29,10.29,0,0,1,20.58,0"/></svg>