<svg id="Layer_1" data-name="Layer 1" xmlns="http://www.w3.org/2000/svg" viewBox="0 0 500 500"><defs><style>.cls-1,.cls-15{fill:none;}.cls-2{fill:#00a99d;}.cls-3{fill:#f0e4d6;}.cls-4{fill:#fff7ed;}.cls-5{fill:#e8594a;}.cls-6{fill:#d65245;}.cls-7{fill:#87ced9;}.cls-8{fill:#4398d1;}.cls-9{fill:#fdb62f;}.cls-10{fill:#c44639;}.cls-11{fill:#7dc6d1;}.cls-12,.cls-13,.cls-14{fill:#fff;}.cls-13,.cls-14,.cls-15{stroke:#000;stroke-miterlimit:10;}.cls-13,.cls-15{stroke-width:5px;}.cls-14{stroke-width:6px;}</style></defs><title>exploration_bg</title><path class="cls-1" d="M202.23,328.72a1.7,1.7,0,0,0,1.7,1.69h2.81l5-7.44a8.64,8.64,0,0,1,7.21-3.86h8a8.7,8.7,0,0,1,3.87.91l5.45,2.73a1.35,1.35,0,0,0,.34.11,82.55,82.55,0,0,0-8.11-12.45l-1.19,1.19a4.43,4.43,0,0,1-6.26-6.27l1.59-1.59q-1.54-1.59-3.2-3.11l-2.14,2.13v6.08a12.6,12.6,0,0,1-8.63,12L202.23,323Z"/><path d="M163.9,271.92a89.29,89.29,0,1,0,89.29,89.29A89.4,89.4,0,0,0,163.9,271.92Zm78.21,58.59c.53,1.36,1,2.8,1.55,4.28l.39,1.18h-6.79a10.28,10.28,0,0,0-4.55,1.07l-2,1a4.9,4.9,0,0,1-4.91-.3l-7.66-5.11a2.65,2.65,0,0,0-1.47-.45H214l3.55-5.31a1.6,1.6,0,0,1,1.33-.72h6.4v2.43a2.64,2.64,0,0,0,5.23.47l.21-1.19,2.36,1.19a8.36,8.36,0,0,0,3.71.87h5.06Zm-26.6-28a1.15,1.15,0,0,1,.33-.8l2.67-2.66c.06-.07.13-.14.18-.21l.6-.74.7.64c1.58,1.42,3.11,2.9,4.56,4.41l.6.63-2.84,2.84a2.64,2.64,0,0,0,0,3.73,2.69,2.69,0,0,0,3.73,0l2.61-2.6.62.77a84.34,84.34,0,0,1,9.62,14.87l.66,1.3h-2.73a3,3,0,0,1-1.35-.32L230,321.62a7,7,0,0,0-3.07-.72h-8a6.86,6.86,0,0,0-5.72,3.06l-5.49,8.24h-3.77a3.49,3.49,0,0,1-3.49-3.48v-6.24a1.13,1.13,0,0,1,.78-1.07l6.89-2.3a10.93,10.93,0,0,0,4.23-2.61,10.76,10.76,0,0,0,3.17-7.66ZM88.23,324.73a83.81,83.81,0,0,1,19.58-26l.7-.63.59.73.19.21,3.77,3.76a2.71,2.71,0,0,0,3.73,0l5.32-5.32a4.87,4.87,0,0,1,3.47-1.44h5.54v1.13a2.63,2.63,0,0,0,3.82,2.36l6.16-3.08a3.83,3.83,0,0,1,1.73-.41h15.61l-2.53,1.65a5.19,5.19,0,0,0,0,8.62l4.86,3.24a1.11,1.11,0,0,1,.5.94v1.75a1.13,1.13,0,0,1-1.13,1.13h-1.62a7.8,7.8,0,0,0-5.53,2.29l-23.75,23.76a1.14,1.14,0,0,1-.8.33h-6a10.19,10.19,0,0,0-10.18,10.17v2.81l-5-1a4,4,0,0,1-2.77-2.11L102.21,345a2.62,2.62,0,0,0-2.36-1.46h-2.1a4.88,4.88,0,0,1-4.65-3.35l-5-15.1Zm136.82,94a84,84,0,0,1-141-83.83l.84-2.57,3.16,9.46a10.16,10.16,0,0,0,9.57,7h.55l1.6,3.19a9.14,9.14,0,0,0,6.44,4.92l13.47,2.7a4.74,4.74,0,0,1,2.45,1.31,9.89,9.89,0,0,0,3.48,2.27l.8.31-2.74,8.2a2.62,2.62,0,0,0-.13.83v7.54a10.23,10.23,0,0,0,4.07,8.14l9,6.78a4.94,4.94,0,0,1,2,3.92v20.32a10.11,10.11,0,0,0,1.71,5.64L145.8,433a5.44,5.44,0,0,0,4.54,2.43h1.31a3.58,3.58,0,0,0,3.58-3.58v-6.46a6.73,6.73,0,0,1,2-4.79l7-7a12.11,12.11,0,0,0,2.91-4.72l2.21-6.61a1.12,1.12,0,0,1,1.07-.78h1.88a6.39,6.39,0,0,0,6.21-4.85L181,386.52a6.42,6.42,0,0,0-1.69-6.08l-4.92-4.92a6.37,6.37,0,0,0-4.53-1.88H165L151.8,360.45a6.37,6.37,0,0,0-4.53-1.88h-18a4.77,4.77,0,0,1-3.39-1.4,10,10,0,0,0-5.14-2.75l-3.21-.65v-3.86a4.9,4.9,0,0,1,4.9-4.9h4.9v1.13a2.64,2.64,0,1,0,5.27,0v-2.69l.34-.33,23.74-23.74a2.53,2.53,0,0,1,1.8-.74h1.62a6.41,6.41,0,0,0,6.4-6.41v-1.75a6.39,6.39,0,0,0-2.85-5.33L159,302l7.68-1.92a4.75,4.75,0,0,0-1.15-9.36H142.83a9.21,9.21,0,0,0-4.09,1l-3,1.49-.45-.56a5,5,0,0,0-3.91-1.89h-5.82a10.14,10.14,0,0,0-7.2,3l-3.46,3.46-2.42-2.41.82-.62a83.83,83.83,0,0,1,101.15,0l.82.63L212.12,298a6.37,6.37,0,0,0-1.88,4.53v6.35a5.56,5.56,0,0,1-3.8,5.27l-6.89,2.3a6.39,6.39,0,0,0-4.38,6.07v6.24a8.77,8.77,0,0,0,1.21,4.42l.43.72-.7.48a12.34,12.34,0,0,0-3.43,3.44l-3.34,5a10.14,10.14,0,0,0-1.71,5.64v6.74a10.09,10.09,0,0,0,1.71,5.64l4,6.05a10.13,10.13,0,0,0,8.46,4.53h9.37a4.9,4.9,0,0,1,4.65,3.35l.84,2.53a20.89,20.89,0,0,1,1.07,6.61v2.67a36.72,36.72,0,0,0,1.43,10.16l6.19,21.69Zm-85.19-28h0l-9-6.78a4.92,4.92,0,0,1-2-3.92v-7.11l3-9.09h15.38a1.14,1.14,0,0,1,.8.33l14,14a2.65,2.65,0,0,0,1.86.77h6a1.14,1.14,0,0,1,.8.33l4.93,4.92a1.12,1.12,0,0,1,.29,1.07l-2.53,10.15a1.13,1.13,0,0,1-1.1.86h-1.88a6.39,6.39,0,0,0-6.07,4.38l-2.21,6.62a6.83,6.83,0,0,1-1.64,2.65l-7,7a12,12,0,0,0-3.53,8.52v4.35l-5.21-7.81a4.88,4.88,0,0,1-.82-2.72V398.89A10.21,10.21,0,0,0,139.86,390.75Zm89.66,22.89-5.25-18.38a31.77,31.77,0,0,1-1.22-8.72v-2.67a25.88,25.88,0,0,0-1.35-8.28l-.84-2.53a10.14,10.14,0,0,0-9.65-6.95h-9.37a4.91,4.91,0,0,1-4.08-2.18l-4-6.05a4.88,4.88,0,0,1-.82-2.72v-6.74a4.88,4.88,0,0,1,.82-2.72l3.33-5a7.25,7.25,0,0,1,6-3.22h12.75l7,4.66a10.21,10.21,0,0,0,10.19.64l2-1a4.93,4.93,0,0,1,2.19-.52h8.26l.16.69a84.38,84.38,0,0,1,2.24,19.28,83.23,83.23,0,0,1-17.31,51Z"/><path d="M148.22,303.12a3.53,3.53,0,0,0-4.74-1.58L136,305.31a3.53,3.53,0,0,0,1.58,6.69,3.47,3.47,0,0,0,1.58-.38l7.53-3.76A3.53,3.53,0,0,0,148.22,303.12Z"/><path d="M201.57,297.4a3.53,3.53,0,0,0-3.53,3.53v3.77a3.54,3.54,0,0,0,7.07,0v-3.77A3.53,3.53,0,0,0,201.57,297.4Z"/><path class="cls-2" d="M215.51,302.49a1.15,1.15,0,0,1,.33-.8l2.67-2.66c.06-.07.13-.14.18-.21l.6-.74.7.64c1.58,1.42,3.11,2.9,4.56,4.41l.6.63-2.84,2.84a2.64,2.64,0,0,0,0,3.73,2.69,2.69,0,0,0,3.73,0l2.61-2.6.62.77a84.34,84.34,0,0,1,9.62,14.87l.66,1.3h-2.73a3,3,0,0,1-1.35-.32L230,321.62a7,7,0,0,0-3.07-.72h-8a6.86,6.86,0,0,0-5.72,3.06l-5.49,8.24h-3.77a3.49,3.49,0,0,1-3.49-3.48v-6.24a1.13,1.13,0,0,1,.78-1.07l6.89-2.3a10.93,10.93,0,0,0,4.23-2.61,10.76,10.76,0,0,0,3.17-7.66Z"/><path class="cls-2" d="M88.23,324.73a83.81,83.81,0,0,1,19.58-26l.7-.63.59.73.19.21,3.77,3.76a2.71,2.71,0,0,0,3.73,0l5.32-5.32a4.87,4.87,0,0,1,3.47-1.44h5.54v1.13a2.63,2.63,0,0,0,3.82,2.36l6.16-3.08a3.83,3.83,0,0,1,1.73-.41h15.61l-2.53,1.65a5.19,5.19,0,0,0,0,8.62l4.86,3.24a1.11,1.11,0,0,1,.5.94v1.75a1.13,1.13,0,0,1-1.13,1.13h-1.62a7.8,7.8,0,0,0-5.53,2.29l-23.75,23.76a1.14,1.14,0,0,1-.8.33h-6a10.19,10.19,0,0,0-10.18,10.17v2.81l-5-1a4,4,0,0,1-2.77-2.11L102.21,345a2.62,2.62,0,0,0-2.36-1.46h-2.1a4.88,4.88,0,0,1-4.65-3.35l-5-15.1Z"/><path class="cls-2" d="M139.86,390.75h0l-9-6.78a4.92,4.92,0,0,1-2-3.92v-7.11l3-9.09h15.38a1.14,1.14,0,0,1,.8.33l14,14a2.65,2.65,0,0,0,1.86.77h6a1.14,1.14,0,0,1,.8.33l4.93,4.92a1.12,1.12,0,0,1,.29,1.07l-2.53,10.15a1.13,1.13,0,0,1-1.1.86h-1.88a6.39,6.39,0,0,0-6.07,4.38l-2.21,6.62a6.83,6.83,0,0,1-1.64,2.65l-7,7a12,12,0,0,0-3.53,8.52v4.35l-5.21-7.81a4.88,4.88,0,0,1-.82-2.72V398.89A10.21,10.21,0,0,0,139.86,390.75Z"/><path class="cls-2" d="M229.52,413.64l-5.25-18.38a31.77,31.77,0,0,1-1.22-8.72v-2.67a25.88,25.88,0,0,0-1.35-8.28l-.84-2.53a10.14,10.14,0,0,0-9.65-6.95h-9.37a4.91,4.91,0,0,1-4.08-2.18l-4-6.05a4.88,4.88,0,0,1-.82-2.72v-6.74a4.88,4.88,0,0,1,.82-2.72l3.33-5a7.25,7.25,0,0,1,6-3.22h12.75l7,4.66a10.21,10.21,0,0,0,10.19.64l2-1a4.93,4.93,0,0,1,2.19-.52h8.26l.16.69a84.38,84.38,0,0,1,2.24,19.28,83.23,83.23,0,0,1-17.31,51Z"/><rect class="cls-3" x="355.94" y="304.22" width="8.21" height="8.21"/><rect class="cls-4" x="374.38" y="270.59" width="6.37" height="6.37"/><rect class="cls-3" x="386.2" y="320.68" width="8.21" height="8.21"/><path class="cls-5" d="M304.48,314.33H263.41L248.07,266.6A96.76,96.76,0,0,1,284,158.25h0A96.77,96.77,0,0,1,319.83,266.6Z"/><path class="cls-6" d="M258.52,300.88l4.89,15.2h41.07l15.35-47.73a96.63,96.63,0,0,0,2.26-50.66C304.71,269,277.15,291.3,258.52,300.88Z"/><circle class="cls-7" cx="283.95" cy="236.29" r="20.54"/><polygon class="cls-8" points="271.63 314.33 267.52 334.87 300.38 334.87 296.27 314.33 271.63 314.33"/><path class="cls-9" d="M242.87,343.08l3.11-21.7a8.21,8.21,0,0,1,8.13-7.05h9.3L249,269.41a48.49,48.49,0,0,0-6.1,73.67Z"/><path class="cls-9" d="M325,343.08l-3.1-21.7a8.22,8.22,0,0,0-8.13-7.05h-9.31l14.44-44.92a48.44,48.44,0,0,1,6.1,73.67Z"/><rect class="cls-10" x="263.41" y="273.26" width="8.21" height="8.21"/><rect class="cls-10" x="279.84" y="273.26" width="8.21" height="8.21"/><rect class="cls-10" x="296.27" y="273.26" width="8.21" height="8.21"/><path class="cls-10" d="M312.84,191.11H255.05c-1.44,2.69-2.8,5.41-4,8.22h65.76C315.64,196.52,314.29,193.8,312.84,191.11Z"/><path class="cls-11" d="M266.88,247.7a20.5,20.5,0,0,0,34.25-22.55c-.24-.35-.48-.7-.74-1Z"/><path d="M284,260.93a24.64,24.64,0,1,0-24.65-24.64A24.64,24.64,0,0,0,284,260.93Zm0-41.07a16.43,16.43,0,1,1-16.43,16.43A16.44,16.44,0,0,1,284,219.86Z"/><path class="cls-1" d="M312.36,199.33H255.53a92.35,92.35,0,0,0-3.55,66l.9,2.82,13.53,42.06h35.08L315,268.16l.91-2.82A92.35,92.35,0,0,0,312.36,199.33Z"/><polygon class="cls-1" points="274.99 318.44 272.53 330.76 295.37 330.76 292.9 318.44 274.99 318.44"/><path class="cls-1" d="M321,276.39l-10.88,33.83h3.67A12.39,12.39,0,0,1,326,320.8l1.77,12.46A44.35,44.35,0,0,0,321,276.39Z"/><path class="cls-1" d="M284,163.36a92.67,92.67,0,0,0-24.28,27.75h48.56A92.67,92.67,0,0,0,284,163.36Z"/><path class="cls-1" d="M232.94,305.18a44.15,44.15,0,0,0,7.19,28.08l1.78-12.46a12.38,12.38,0,0,1,12.19-10.58h3.68l-10.87-33.83A44.3,44.3,0,0,0,232.94,305.18Z"/><path d="M326.69,273.11a50.12,50.12,0,0,0-4.13-3.71l-1-.8.43-1.22,0-.12a98.73,98.73,0,0,0-36.74-110.87,2.32,2.32,0,0,0-2.66,0A98.74,98.74,0,0,0,245.89,267.3l0,.08.42,1.21-1,.81a50.63,50.63,0,0,0-7.79,71.16,49.69,49.69,0,0,0,3.71,4.14,2.26,2.26,0,0,0,1.61.67,2.24,2.24,0,0,0,.73-.12,2.3,2.3,0,0,0,1.54-1.85l3.1-21.7a6,6,0,0,1,5.86-5.09h14.74l-.44,2.18-3.12,15.61a2.31,2.31,0,0,0,1.78,2.71,2.38,2.38,0,0,0,.46,0h32.86a2.28,2.28,0,0,0,2.28-2.28,1.93,1.93,0,0,0-.05-.47l-3.12-15.61-.43-2.18h14.73a6,6,0,0,1,5.87,5.1l3.1,21.7a2.27,2.27,0,0,0,1.54,1.84,2.18,2.18,0,0,0,.72.12,2.3,2.3,0,0,0,1.61-.67,50.61,50.61,0,0,0,.06-71.59Zm-68.61-82.9a94.09,94.09,0,0,1,24.76-28.3l1.11-.84,1.1.84a93.7,93.7,0,0,1,24.76,28.3l1.56,2.72H256.53ZM257.78,312H254.1a10.51,10.51,0,0,0-10.39,9l-1.78,12.45-.67,4.74-2.65-4a46.18,46.18,0,0,1,7.06-59.22l2.1-1.95.87,2.73,10.87,33.83.77,2.38Zm37.59,20.54H270.31l.43-2.18,2.47-12.32.29-1.47h20.9l.29,1.47,2.46,12.32.44,2.18ZM302.82,312H265.08l-.41-1.26-13.52-42.07-.9-2.81a94,94,0,0,1,3.62-67.32l.48-1.08h59.19l.49,1.08a94,94,0,0,1,3.62,67.32l-.9,2.81-13.52,42.07Zm23.82,26.22-.68-4.74-1.78-12.46a10.49,10.49,0,0,0-10.4-9h-6.16l.76-2.38,10.88-33.83.88-2.73,2.1,1.95a46.21,46.21,0,0,1,7,59.22Z"/><rect x="263.41" y="273.26" width="8.21" height="8.21"/><rect x="279.84" y="273.26" width="8.21" height="8.21"/><rect x="296.27" y="273.26" width="8.21" height="8.21"/><rect x="355.94" y="304.22" width="8.21" height="8.21"/><rect x="374.38" y="270.59" width="6.37" height="6.37"/><rect x="363.35" y="324.83" width="8.21" height="8.21"/><rect x="386.2" y="320.68" width="8.21" height="8.21"/><path class="cls-12" d="M252,358.79c5.76-1.71,20.55-4,20.55-4S285.08,391.7,286,391.7,280.52,430,280.52,430l-49.2-5.47-38.27-6.37-15.48-28.25,23.69-19.13s6.89-5.76,18.48-5.16a73.71,73.71,0,0,1,20.69,4.15l2.74,1Z"/><path class="cls-13" d="M227.75,366.26h.39A27.62,27.62,0,0,1,245,372"/><path class="cls-13" d="M206.3,376.93a27.62,27.62,0,0,1,21.45-10.67"/><path class="cls-13" d="M231.87,420.6a27.29,27.29,0,0,1-34.38,11.52c-5.9-2.51-10.71-7.86-13.55-13.08"/><path class="cls-13" d="M308,432.12a46,46,0,0,1-78.4-17.42"/><path class="cls-13" d="M243.14,370.85a25.06,25.06,0,0,1,30.55-16"/><path class="cls-13" d="M337.65,367.44A33.67,33.67,0,0,1,347.08,386"/><path class="cls-13" d="M293.73,364.14a33.74,33.74,0,0,1,43.92,3.3"/><path class="cls-13" d="M341,408.27a28.22,28.22,0,0,1-12.09,19.39c-10.77,7.66-24.54,6.56-33.29-2.71"/><path class="cls-13" d="M227.75,366.26A38.16,38.16,0,1,0,211,415.64"/><polyline class="cls-14" points="273.69 354.84 273.69 337.49 293.73 337.49 293.73 364.14"/><line class="cls-14" x1="273.69" y1="354.84" x2="273.69" y2="368.01"/><line class="cls-14" x1="293.73" y1="364.14" x2="293.73" y2="382.99"/><line class="cls-14" x1="293.73" y1="382.99" x2="293.73" y2="388.51"/><path class="cls-14" d="M293.73,383l-2.14,0"/><path class="cls-15" d="M227.75,366.26h.39A27.62,27.62,0,0,1,245,372"/><path class="cls-15" d="M206.3,376.93a27.62,27.62,0,0,1,21.45-10.67"/><path class="cls-15" d="M243.14,370.85a33.79,33.79,0,0,1,10,12.37"/><path class="cls-15" d="M231.87,420.6a27.3,27.3,0,0,1-47.66-.56"/><path class="cls-15" d="M308,432.12a46,46,0,0,1-78.4-17.42"/><path class="cls-15" d="M243.14,370.85a25.06,25.06,0,0,1,30.55-16"/><path class="cls-15" d="M337.65,367.44A33.67,33.67,0,0,1,347.08,386"/><path class="cls-15" d="M293.73,364.14a33.74,33.74,0,0,1,43.92,3.3"/><path class="cls-15" d="M341,408.27A27.2,27.2,0,0,1,295.61,425"/><path class="cls-15" d="M227.75,366.26A38.16,38.16,0,1,0,211,415.64"/><path class="cls-15" d="M339.81,413.1a45.59,45.59,0,1,0-.85-42.31"/><line class="cls-15" x1="273.69" y1="354.84" x2="273.69" y2="337.49"/><line class="cls-15" x1="273.69" y1="354.84" x2="273.69" y2="368.01"/><line class="cls-15" x1="293.73" y1="364.14" x2="293.73" y2="382.99"/><line class="cls-15" x1="293.73" y1="364.14" x2="293.73" y2="337.49"/><line class="cls-15" x1="293.73" y1="382.99" x2="293.73" y2="388.51"/><path class="cls-15" d="M293.73,383l-2.14,0"/></svg>