<svg id="Layer_1" data-name="Layer 1" xmlns="http://www.w3.org/2000/svg" viewBox="0 0 500 500"><defs><style>.cls-1,.cls-3{fill:none;}.cls-1,.cls-2,.cls-3,.cls-4,.cls-5,.cls-6,.cls-7,.cls-8{stroke:#000;}.cls-1,.cls-2,.cls-3,.cls-6,.cls-7,.cls-8{stroke-miterlimit:10;}.cls-1,.cls-3,.cls-4,.cls-5,.cls-6,.cls-7,.cls-8{stroke-width:6px;}.cls-2{fill:#f4393d;stroke-width:8px;}.cls-3,.cls-4,.cls-5{stroke-linecap:round;}.cls-4{fill:#29abe2;}.cls-4,.cls-5{stroke-linejoin:round;}.cls-5{fill:#8cc63f;}.cls-6{fill:#f2da00;}.cls-7{fill:#f27900;}.cls-8{fill:#9e005d;}</style></defs><title>mvp_bg</title><circle class="cls-1" cx="327.77" cy="348.27" r="102.23"/><path class="cls-2" d="M327.77,272.25a76,76,0,1,0,76,76A76,76,0,0,0,327.77,272.25Zm0,120.58a44.56,44.56,0,1,1,44.56-44.56A44.56,44.56,0,0,1,327.77,392.83Z"/><line class="cls-3" x1="327.24" y1="347.74" x2="262.76" y2="283.26"/><polygon class="cls-4" points="261.62 324.76 304.81 326.14 264.37 285.69 221.18 284.32 261.62 324.76"/><polygon class="cls-4" points="304.31 279.5 302.49 322.17 265.43 285.11 267.25 242.44 304.31 279.5"/><rect class="cls-5" x="70" y="428.77" width="46.3" height="21.73" rx="3" ry="3"/><rect class="cls-6" x="139.92" y="407.98" width="46.3" height="42.52" rx="3" ry="3"/><rect class="cls-7" x="209.84" y="382.47" width="46.3" height="68.03" rx="3" ry="3"/><rect class="cls-8" x="279.76" y="356.01" width="46.3" height="94.49" rx="3" ry="3"/></svg>