<svg xmlns="http://www.w3.org/2000/svg" viewBox="0 0 646 514"><defs><style>.cls-1,.cls-2{fill:none;}.cls-1{stroke:#000;stroke-miterlimit:10;stroke-width:8px;}</style></defs><title>Asset 2</title><g id="Layer_2" data-name="Layer 2"><g id="Layer_1-2" data-name="Layer 1"><rect class="cls-1" x="241.5" y="51.5" width="289" height="288" rx="5" ry="5"/><rect class="cls-1" x="562" y="52" width="80" height="80" rx="5" ry="5"/><rect class="cls-1" x="4" y="338" width="205" height="125" rx="5" ry="5"/><rect class="cls-1" x="435" y="370" width="207" height="140" rx="5" ry="5"/><rect class="cls-1" x="241" y="415" width="164" height="95" rx="5" ry="5"/><path class="cls-1" d="M217.52,264H151a5,5,0,0,1-5-5V9a5,5,0,0,1,5-5H297a5,5,0,0,1,5,5V26"/><line class="cls-1" x1="209" y1="23.5" x2="242" y2="23.5"/><line class="cls-1" x1="243.5" y1="248.5" x2="191.5" y2="248.5"/><circle cx="198" cy="23.5" r="5.5"/><line class="cls-1" x1="435" y1="395" x2="642" y2="395"/><line class="cls-1" x1="191" y1="338" x2="191" y2="463"/><rect class="cls-1" x="578" y="71" width="21" height="21" rx="5" ry="5"/><rect class="cls-1" x="455" y="438" width="55" height="55"/><circle cx="449.5" cy="382.5" r="5.5"/><circle class="cls-1" cx="199.5" cy="400.5" r="3.5"/><circle cx="470.5" cy="382.5" r="5.5"/><circle cx="491.5" cy="382.5" r="5.5"/><polygon class="cls-1" points="127.6 411.4 127.6 381.6 101.8 366.71 76 381.6 76 411.4 101.8 426.29 127.6 411.4"/><line class="cls-2" x1="76" y1="411.5" x2="101.8" y2="396.5"/><line class="cls-1" x1="127.6" y1="381.5" x2="101.8" y2="396.5"/><line class="cls-2" x1="101.8" y1="396.5" x2="127.6" y2="411.5"/><line class="cls-1" x1="101.8" y1="396.5" x2="76" y2="381.5"/><line class="cls-1" x1="101.8" y1="426.5" x2="101.8" y2="396.5"/><line class="cls-2" x1="101.8" y1="366.5" x2="101.8" y2="396.5"/><ellipse class="cls-1" cx="382.25" cy="175.25" rx="16.34" ry="46.68"/><ellipse class="cls-1" cx="382.25" cy="175.25" rx="16.34" ry="46.68" transform="translate(39.35 418.66) rotate(-60)"/><ellipse class="cls-1" cx="382.25" cy="175.25" rx="46.68" ry="16.34" transform="translate(-36.41 214.6) rotate(-30)"/><circle class="cls-1" cx="382.25" cy="175.25" r="3.89"/></g></g></svg>