<svg id="Layer_1" data-name="Layer 1" xmlns="http://www.w3.org/2000/svg" viewBox="0 0 1000 600"><defs><style>.cls-1,.cls-7{opacity:0.3;}.cls-2,.cls-7{fill:#fcee21;}.cls-10,.cls-3{fill:#333;}.cls-4{fill:#f7931e;}.cls-5{fill:#fff;}.cls-6{fill:#1a1a1a;opacity:0.15;}.cls-8{fill:#f05a28;}.cls-9{fill:#7cc799;}.cls-10,.cls-11{opacity:0.2;}</style></defs><title>ideas_bg</title><g class="cls-1"><path class="cls-2" d="M747.12,275l-.34,4c-.16,1.93-4.37,47.41-36.68,68.11-2.21,1.71-16.3,11.78-41.44,11.78a102.11,102.11,0,0,1-16.15-1.32V470h-30.9V355.54a132.19,132.19,0,0,1-29.46-1.74c-26-4.52-47.24-16.73-61.54-35.31-1-1.33-25.37-33.46-25.37-81.75v-3.35l3.09-1.27c2.19-.91,54-21.85,96.45-.71,20.61,10.27,35.29,28.62,43.71,54.64a79.31,79.31,0,0,1,18.92-11.27c15.16-6.43,40.64-11.82,75.86-1Zm-42.6,63.83c23.11-14.68,30-45.59,31.75-56.63-58.7-16.27-86.16,15.95-86.43,16.29L643.61,306l-2.47-9.47c-7.14-27.32-20.85-46.21-40.77-56.16-32.75-16.33-73.57-4.2-85.08-.19,1.14,42.86,23,71.9,23.26,72.19,30.84,40.07,86.8,32.8,87.37,32.72l5.69-.79V460H642.5V345.38l6,1.29c36.38,7.77,55.28-7.34,55.46-7.5Z"/><path class="cls-2" d="M736.27,282.19c-1.76,11-8.64,41.95-31.75,56.63l-.51.35c-.18.16-19.08,15.27-55.46,7.5l-6-1.29V460H631.62V344.32l-5.69.79c-.57.08-56.53,7.35-87.37-32.72-.23-.29-22.12-29.33-23.26-72.19,11.51-4,52.33-16.14,85.08.19,19.92,10,33.63,28.84,40.77,56.16l2.47,9.47,6.23-7.54C650.11,298.14,677.57,265.92,736.27,282.19Zm-15.62,14.87,1.5-5.29-5.42-1c-28.4-5.19-46.17,5.08-56.08,14.61a60.84,60.84,0,0,0-14.79,22.32l-1.62,4.85,4.88,1.51a69.72,69.72,0,0,0,20.7,3.37,48.83,48.83,0,0,0,23.69-5.84C713.8,320.57,720.38,298,720.65,297.06ZM631,328.17c.64-33.21-8.25-57-26.45-70.66-29.14-21.89-70.85-9.28-72.62-8.74l-4,1.26.57,4.19c4.09,30.19,15.82,52.32,34.86,65.77,16.72,11.82,35.37,14.32,48.15,14.32A82.81,82.81,0,0,0,627,333l3.91-.81Z"/><path class="cls-2" d="M722.15,291.77l-1.5,5.29c-.27.95-6.85,23.51-27.14,34.53a48.83,48.83,0,0,1-23.69,5.84,69.72,69.72,0,0,1-20.7-3.37l-4.88-1.51,1.62-4.85a60.84,60.84,0,0,1,14.79-22.32c9.91-9.53,27.68-19.8,56.08-14.61Zm-13.22,8c-32.07-3.33-46.41,16.61-51.41,26.21,11.9,2.7,22.38,1.64,31.21-3.16C699.85,316.77,706,306.18,708.93,299.75Z"/><path class="cls-2" d="M604.57,257.51c18.2,13.68,27.09,37.45,26.45,70.66l-.07,4L627,333a82.81,82.81,0,0,1-15.55,1.33c-12.78,0-31.43-2.5-48.15-14.32-19-13.45-30.77-35.58-34.86-65.77l-.57-4.19,4-1.26C533.72,248.23,575.43,235.62,604.57,257.51ZM621,323.76c-.19-27.59-7.74-47.17-22.48-58.24-20.21-15.19-48.91-10.65-59.5-8.25,4.18,25.06,14.29,43.4,30.06,54.56C588.69,325.66,611.92,324.78,621,323.76Z"/></g><path class="cls-3" d="M591.79,599c-6,0-15.47-3.4-19.83-16.81L556,536.05c-5.54.5-15.71-.56-20.66-13.68-5.27-14-10.11-27.1-10.83-29.07-1.12-2.15-6.8-14.28,2.29-23a23.1,23.1,0,0,1,14.79-5.91H725.18c1.05,0,12.06,0,17.57,7.77,3.77,5.3,4,12.56.56,21.57-9.3,24.64-13.78,33.29-14,33.64a16.78,16.78,0,0,1-5.33,5.61,19.48,19.48,0,0,1-13.18,3L696,586.5c-1.75,5-9.21,13.94-24.94,12.17l-77.24.24A15,15,0,0,1,591.79,599ZM561,526.88l1.25,3.54,17,49.35c4.2,12.92,13.12,11.52,13.5,11.46l.32-.06h.33l78-.24.23,0c13.19,1.57,16.64-6.22,16.93-7l16.8-57.1,3.59.88c9.44,2.3,13-3.3,13.5-4.08s4.78-9.48,13.56-32.74c2.43-6.46,2.56-11.29.37-14.35-3.25-4.59-11-4.52-11.12-4.52H541.63a15.21,15.21,0,0,0-9.42,3.75c-5.53,5.32-.8,13.89-.75,14l.15.27.11.3c0,.14,5.23,14.23,10.9,29.25,1.83,4.86,4.79,7.74,8.79,8.56a13.5,13.5,0,0,0,6-.2Z"/><path class="cls-3" d="M646.85,458.74H623V346.23a101.17,101.17,0,0,1-22.8-1.35c-20.06-3.49-36.52-12.93-47.58-27.3-.8-1-19.62-25.88-19.62-63.23v-2.59l2.39-1c1.69-.7,41.77-16.89,74.59-.54,15.94,7.93,27.29,22.13,33.81,42.25a61,61,0,0,1,14.62-8.71c11.73-5,31.43-9.15,58.67-.76l3,.92-.26,3.1c-.13,1.5-3.38,36.67-28.37,52.68-1.71,1.32-12.61,9.11-32,9.11a78.86,78.86,0,0,1-12.5-1ZM630.69,451h8.42V338.37l4.68,1c28.14,6,42.75-5.68,42.9-5.79l.38-.28C705,322,710.27,298,711.63,289.5c-45.4-12.58-66.63,12.34-66.84,12.6L640,307.93l-1.91-7.32c-5.52-21.13-16.13-35.74-31.53-43.43-25.33-12.63-56.9-3.25-65.8-.15.88,33.15,17.81,55.6,18,55.83,23.86,31,67.14,25.37,67.58,25.31l4.4-.61V451Z"/><path class="cls-3" d="M615.13,329.82c-9.89,0-24.31-1.94-37.24-11.08-14.72-10.41-23.79-27.52-27-50.86l-.44-3.25,3.13-1c1.36-.42,33.61-10.17,56.16,6.76,14.07,10.58,21,29,20.45,54.65l-.06,3.08-3,.63A62.64,62.64,0,0,1,615.13,329.82Zm-56-59.59c3.24,19.39,11,33.57,23.25,42.19,15.14,10.7,33.1,10,40.16,9.23-.15-21.33-6-36.48-17.39-45C589.49,264.86,567.31,268.38,559.11,270.23Z"/><path class="cls-3" d="M660.24,332.23a54.18,54.18,0,0,1-16-2.61l-3.77-1.17,1.24-3.75a47.18,47.18,0,0,1,11.44-17.25c7.67-7.38,21.41-15.32,43.38-11.31l4.18.77L699.55,301c-.21.74-5.29,18.18-21,26.71A37.87,37.87,0,0,1,660.24,332.23Zm-9.51-8.87c9.2,2.08,17.3,1.26,24.14-2.45,8.59-4.67,13.37-12.86,15.62-17.82C665.68,300.51,654.59,315.92,650.73,323.36Z"/><circle class="cls-4" cx="762.93" cy="593.55" r="11"/><path class="cls-3" d="M756,590.55c-1.15,3.9-.06,8.12,4,9.86a7.48,7.48,0,1,0,5.52-13.9c-4.26-1.52-8.19,1-9.74,4.94-1.65,4.21-8.05,1.28-6.4-2.94a15,15,0,1,1-.27.91C750.31,585.13,757.27,586.21,756,590.55Z"/><circle class="cls-4" cx="490.99" cy="544.13" r="11"/><path class="cls-3" d="M484.05,541.13c-1.15,3.91-.06,8.12,4,9.86a7.48,7.48,0,1,0,5.51-13.9c-4.26-1.51-8.19,1-9.74,4.94-1.65,4.22-8,1.28-6.4-2.93a14.92,14.92,0,1,1-.27.9C478.37,535.72,485.33,536.79,484.05,541.13Z"/><circle class="cls-4" cx="841.84" cy="210.92" r="11"/><path class="cls-3" d="M834.9,207.92c-1.16,3.91-.06,8.12,4,9.86a7.48,7.48,0,1,0,5.52-13.9c-4.26-1.51-8.19,1-9.75,4.94-1.64,4.22-8,1.28-6.39-2.93a14.77,14.77,0,1,1-.28.9C829.22,202.51,836.18,203.58,834.9,207.92Z"/><path class="cls-3" d="M792.79,585.72l15.26-15.26Z"/><path class="cls-3" d="M789.4,582.92l15.26-15.26c4-4,10.8,1.59,6.78,5.6l-15.26,15.26c-4,4-10.8-1.59-6.78-5.6l15.26-15.26c4-4,10.8,1.59,6.78,5.6l-15.26,15.26C792.21,592.48,785.38,586.93,789.4,582.92Z"/><path class="cls-3" d="M792.79,569.72l15.63,15.63Z"/><path class="cls-3" d="M795.59,566.33,811.22,582c4,4-1.59,10.8-5.6,6.78L790,573.11c-4-4,1.59-10.8,5.6-6.78L811.22,582c4,4-1.59,10.8-5.6,6.78L790,573.11C786,569.14,791.58,562.31,795.59,566.33Z"/><circle class="cls-4" cx="242.09" cy="488.2" r="11"/><path class="cls-3" d="M239.1,495.14c3.9,1.15,8.12.06,9.86-3.95a7.48,7.48,0,1,0-13.9-5.52c-1.52,4.26,1,8.19,4.94,9.74,4.21,1.65,1.28,8-2.94,6.4a15,15,0,1,1,.91.27C233.68,500.82,234.76,493.86,239.1,495.14Z"/><path class="cls-3" d="M205.13,478l-15.26-15.26Z"/><path class="cls-3" d="M202.33,481.42l-15.26-15.26c-4-4,1.59-10.8,5.6-6.78l15.26,15.26c4,4-1.59,10.8-5.6,6.78l-15.26-15.26c-4-4,1.59-10.8,5.6-6.78l15.26,15.26C211.89,478.61,206.34,485.44,202.33,481.42Z"/><path class="cls-3" d="M189.13,478l15.63-15.63Z"/><path class="cls-3" d="M185.74,475.23l15.63-15.63c4-4,10.8,1.59,6.79,5.6l-15.64,15.63c-4,4-10.8-1.59-6.78-5.6l15.63-15.63c4-4,10.8,1.59,6.79,5.6l-15.64,15.63C188.55,484.79,181.72,479.24,185.74,475.23Z"/><path class="cls-5" d="M443.76,580.76,459,565.51Z"/><path class="cls-5" d="M440.37,578l15.27-15.25c4-4,10.79,1.59,6.78,5.6l-15.27,15.25c-4,4-10.79-1.59-6.78-5.6l15.27-15.25c4-4,10.79,1.59,6.78,5.6l-15.27,15.25C443.19,587.53,436.36,582,440.37,578Z"/><path class="cls-5" d="M443.77,564.76l15.62,15.64Z"/><path class="cls-5" d="M446.57,561.37,462.19,577c4,4-1.59,10.79-5.6,6.78L441,568.15c-4-4,1.59-10.79,5.6-6.78L462.19,577c4,4-1.59,10.79-5.6,6.78L441,568.15C437,564.19,442.56,557.36,446.57,561.37Z"/><path class="cls-3" d="M870.62,268.65l15.27-15.26Z"/><path class="cls-3" d="M867.23,265.85l15.27-15.26c4-4,10.79,1.59,6.78,5.6L874,271.45c-4,4-10.79-1.59-6.78-5.6l15.27-15.26c4-4,10.79,1.59,6.78,5.6L874,271.45C870.05,275.41,863.22,269.86,867.23,265.85Z"/><path class="cls-3" d="M870.63,252.65l15.62,15.63Z"/><path class="cls-3" d="M873.43,249.25l15.62,15.64c4,4-1.59,10.8-5.6,6.78L867.83,256c-4-4,1.59-10.8,5.6-6.79l15.62,15.64c4,4-1.59,10.8-5.6,6.78L867.83,256C863.86,252.07,869.42,245.24,873.43,249.25Z"/><path class="cls-6" d="M929.81,378.82h0a102.43,102.43,0,0,1-15.72,76.82l-69.68,103-64.48-42,69-111.15a91.54,91.54,0,0,1,58.94-41.33h0A18.51,18.51,0,0,1,929.81,378.82Z"/><path class="cls-7" d="M877.82,492.82l12.54,19.7a31.38,31.38,0,0,1-.21,34h0L854.07,523"/><path class="cls-7" d="M829,458.76l-26.71-4.55c-11.48-1.95-23.56,3.71-30.47,14.27h0l38.59,25.26"/><rect class="cls-8" x="800.5" y="507.57" width="54.33" height="20.44" transform="translate(1236.6 1404.3) rotate(-146.79)"/><rect class="cls-9" x="804.76" y="525.12" width="25.79" height="11.51" transform="translate(1211.04 1422.86) rotate(-146.79)"/><path class="cls-3" d="M772.35,550.88l15.26-15.26Z"/><path class="cls-3" d="M769,548.07l15.27-15.25c4-4,10.8,1.59,6.78,5.6l-15.26,15.26c-4,4-10.8-1.59-6.79-5.61l15.27-15.25c4-4,10.8,1.59,6.78,5.6l-15.26,15.26C771.77,557.64,764.94,552.09,769,548.07Z"/><path class="cls-3" d="M772.35,534.87,788,550.51Z"/><path class="cls-3" d="M775.15,531.48l15.63,15.64c4,4-1.59,10.79-5.6,6.78l-15.63-15.64c-4-4,1.59-10.79,5.6-6.78l15.63,15.64c4,4-1.59,10.79-5.6,6.78l-15.63-15.64C765.59,534.3,771.14,527.47,775.15,531.48Z"/><path class="cls-3" d="M803.31,494.09l53.92-86.71A75,75,0,0,1,903.18,374,17,17,0,0,1,924,387.82h0a82.54,82.54,0,0,1-13.31,60l-54.45,80.65ZM905.13,382.22a66.57,66.57,0,0,0-40.73,29.61l-49.55,79.69,39,25.39,49.81-73.78a75.12,75.12,0,0,0,12-53.91h0a8.54,8.54,0,0,0-5.78-6.84A8.84,8.84,0,0,0,905.13,382.22Z"/><path class="cls-3" d="M890.21,551l2.32-3.53a35.68,35.68,0,0,0,.24-38.62l-12.55-19.7-7.12,4.54,12.55,19.7a27.23,27.23,0,0,1,1.85,25.74L855.23,518,850.61,525Z"/><path class="cls-3" d="M808.7,497.6l4.63-7.06-34.81-22.78c6.14-6.92,15.21-10.5,23.67-9.06l26.71,4.55,1.41-8.33-26.7-4.54c-13.21-2.25-26.84,4.08-34.72,16.12L766.58,470Z"/><path class="cls-3" d="M792.34,511.23l15.81-24.17,52.53,34.38-15.82,24.17Zm18.25-12.48-6.57,10,38.4,25.13,6.57-10Z"/><path class="cls-3" d="M796.71,528.4l10.93-16.7,28.64,18.75-10.93,16.7Zm13.37-5L808.4,526l14.51,9.5,1.68-2.57Z"/><path class="cls-3" d="M882.08,430.47a17,17,0,1,1,4.14,2A17.34,17.34,0,0,1,882.08,430.47Zm7.62-22.92a8.61,8.61,0,0,0-5.52,3.76h0a8.74,8.74,0,1,0,14.62,9.57,8.74,8.74,0,0,0-2.52-12.09,8.51,8.51,0,0,0-2.11-1A8.64,8.64,0,0,0,889.7,407.55Z"/><path class="cls-3" d="M454.88,374.73H273.39a3.69,3.69,0,0,0-3.69,3.68v37.95a3.69,3.69,0,0,0,3.69,3.69H454.88a3.69,3.69,0,0,0,3.69-3.69V378.41A3.69,3.69,0,0,0,454.88,374.73Zm-3.69,37.94H277.08V382.1H451.19Z"/><path class="cls-3" d="M442.86,404.29l-3-3A11.79,11.79,0,0,0,421,387.64a11.78,11.78,0,0,0,13.64,18.85l3,3a3.69,3.69,0,0,0,5.22-5.22Zm-10.42-5.2a4.42,4.42,0,1,1,1.29-3.12A4.39,4.39,0,0,1,432.44,399.09Z"/><path class="cls-3" d="M401.89,403.34a4.54,4.54,0,0,0-.21-.69,4.77,4.77,0,0,0-.34-.63,4.15,4.15,0,0,0-.46-.56,3.51,3.51,0,0,0-.56-.46,3.55,3.55,0,0,0-.64-.34,3.94,3.94,0,0,0-.69-.21,3.49,3.49,0,0,0-1.44,0,3.75,3.75,0,0,0-1.33.55,3.51,3.51,0,0,0-.56.46,4.15,4.15,0,0,0-.46.56,4.77,4.77,0,0,0-.34.63,4.54,4.54,0,0,0-.21.69,3.79,3.79,0,0,0,0,1.45,4.54,4.54,0,0,0,.21.69,4.77,4.77,0,0,0,.34.63,3.61,3.61,0,0,0,.46.56,3.51,3.51,0,0,0,.56.46,3.92,3.92,0,0,0,.64.34,4.22,4.22,0,0,0,.69.21,3.51,3.51,0,0,0,.72.07,3.45,3.45,0,0,0,.72-.07,3.75,3.75,0,0,0,1.33-.55,3.51,3.51,0,0,0,.56-.46,3.67,3.67,0,0,0,1.08-2.6A4.4,4.4,0,0,0,401.89,403.34Z"/><path class="cls-3" d="M384.29,400.38H307.62a3.69,3.69,0,1,0,0,7.37h76.67a3.69,3.69,0,0,0,0-7.37Z"/><path class="cls-3" d="M397.48,507.27H286a3.67,3.67,0,0,0-3.67,3.68v72.4A3.67,3.67,0,0,0,286,587H397.48a3.67,3.67,0,0,0,3.67-3.67V511A3.67,3.67,0,0,0,397.48,507.27Zm-70.86,72.4H295.45l21-24.3L331.64,573Zm9.18,0,6.84-9.12h17.81a3.68,3.68,0,0,0,0-7.35h-12.3l2.58-3.43h23l14.93,19.9Zm20.43-27.24,6-8,6,8Zm37.58,21.81-28.62-38.16a3.67,3.67,0,0,0-5.87,0L336.15,567l-16.93-19.6a3.68,3.68,0,0,0-5.56,0l-24,27.77V514.62H393.81Z"/><path class="cls-3" d="M332.43,518.83a13,13,0,1,0,13,13A13,13,0,0,0,332.43,518.83Zm0,18.62a5.64,5.64,0,1,1,5.64-5.64A5.64,5.64,0,0,1,332.43,537.45Z"/><path class="cls-10" d="M715.76,458.74H684.38l.19-4.06c0-.15.73-15.18,2-30.44,2.7-32.48,5.17-34.29,7-35.61,3.16-2.32,18.9-18.13,28.08-27.56a150,150,0,0,0,32.84-51.31,127.73,127.73,0,0,0,7.74-60c-4-34.47-21.73-65.36-50-87a137.07,137.07,0,0,0-97.26-27.56,129.25,129.25,0,0,0-25.62,5.23,110.52,110.52,0,0,0-36.12,18.95c-17,13.6-30.66,33.56-39.46,57.72-9.52,26.17-12,52.94-7.07,77.41,7.11,35.49,32.38,58.37,59.13,82.61,4.62,4.18,9.39,8.5,14,12.84,1.89,1.38,2.78,4.76,3.67,10.38,1.67,10.44,3,28.72,4.1,54.34l.16,4H556.59l-.31-3.53c-1.44-16.19-4.11-42.81-5.32-47.58a26.4,26.4,0,0,0-2.67-2c-.75-.52-1.4-1-1.89-1.38-4.92-4.2-9.88-8.64-14.76-13.2-11.54-10.78-24.61-23-34.33-37.59-17.92-26.9-26.7-60.48-24.74-94.56,1.82-31.5,14.08-78.8,42.65-108.4,14.93-15.48,35.17-28.73,57-37.32a157,157,0,0,1,61.61-10.73A172.17,172.17,0,0,1,724.21,131a158.13,158.13,0,0,1,59.95,73.38c13.66,34.4,14.77,73.29,3.1,109.52C777.58,344,759,371.38,728.8,400.15c-2.39,2.28-4.92,4.63-7.53,7Z"/><g class="cls-11"><path class="cls-3" d="M376.65,438H309.77a4.35,4.35,0,0,0-4.35,4.35V487.2a4.35,4.35,0,0,0,4.35,4.35h66.88A4.35,4.35,0,0,0,381,487.2V442.38A4.35,4.35,0,0,0,376.65,438Z"/></g><path class="cls-3" d="M371.5,443.58H317.09a3.53,3.53,0,0,0-3.54,3.54v36.46a3.53,3.53,0,0,0,3.54,3.54H371.5a3.54,3.54,0,0,0,3.54-3.54V447.12A3.54,3.54,0,0,0,371.5,443.58ZM368,480H320.63V450.66H368Z"/><path class="cls-3" d="M490.85,443.58h-107a3.53,3.53,0,0,0-3.54,3.54v36.46a3.53,3.53,0,0,0,3.54,3.54h107a3.53,3.53,0,0,0,3.54-3.54V447.12A3.53,3.53,0,0,0,490.85,443.58ZM487.31,480H387.38V450.66h99.93V480Z"/><path class="cls-3" d="M403.51,464.66a3.63,3.63,0,0,0-.21-.66,2.8,2.8,0,0,0-.32-.62,4.51,4.51,0,0,0-.44-.54,2.84,2.84,0,0,0-.54-.43,3.6,3.6,0,0,0-.61-.33,3.89,3.89,0,0,0-.66-.21,4.06,4.06,0,0,0-1.39,0,4.2,4.2,0,0,0-.66.21,3.6,3.6,0,0,0-.61.33,3.64,3.64,0,0,0-.54.43,4.51,4.51,0,0,0-.44.54,2.8,2.8,0,0,0-.32.62,3.63,3.63,0,0,0-.21.66,3.93,3.93,0,0,0-.06.69,4,4,0,0,0,.06.69,3.89,3.89,0,0,0,.21.66,2.73,2.73,0,0,0,.32.61,3.34,3.34,0,0,0,.44.54,3.58,3.58,0,0,0,2.51,1,3.23,3.23,0,0,0,.69-.07,5,5,0,0,0,.66-.2,3.6,3.6,0,0,0,.61-.33,3.43,3.43,0,0,0,1-1,2.73,2.73,0,0,0,.32-.61,3.89,3.89,0,0,0,.21-.66,4,4,0,0,0,.07-.69A3.94,3.94,0,0,0,403.51,464.66Z"/><path class="cls-3" d="M472.91,461.81H413.46a3.54,3.54,0,1,0,0,7.08h59.45a3.54,3.54,0,0,0,0-7.08Z"/><path class="cls-3" d="M715.76,458.74H684.38l.19-4.06c0-.15.73-15.18,2-30.44,2.7-32.48,5.17-34.29,7-35.61,3.16-2.32,18.9-18.13,28.08-27.56a150,150,0,0,0,32.84-51.31,127.73,127.73,0,0,0,7.74-60c-4-34.47-21.73-65.36-50-87a137.07,137.07,0,0,0-97.26-27.56,129.25,129.25,0,0,0-25.62,5.23,110.52,110.52,0,0,0-36.12,18.95c-17,13.6-30.66,33.56-39.46,57.72-9.52,26.17-12,52.94-7.07,77.41,7.11,35.49,32.38,58.37,59.13,82.61,4.62,4.18,9.39,8.5,14,12.84,1.89,1.38,2.78,4.76,3.67,10.38,1.67,10.44,3,28.72,4.1,54.34l.16,4H556.59l-.31-3.53c-1.44-16.19-4.11-42.81-5.32-47.58a26.4,26.4,0,0,0-2.67-2c-.75-.52-1.4-1-1.89-1.38-4.92-4.2-9.88-8.64-14.76-13.2-11.54-10.78-24.61-23-34.33-37.59-17.92-26.9-26.7-60.48-24.74-94.56,1.82-31.5,14.08-78.8,42.65-108.4,14.93-15.48,35.17-28.73,57-37.32a157,157,0,0,1,61.61-10.73A172.17,172.17,0,0,1,724.21,131a158.13,158.13,0,0,1,59.95,73.38c13.66,34.4,14.77,73.29,3.1,109.52C777.58,344,759,371.38,728.8,400.15c-2.39,2.28-4.92,4.63-7.53,7ZM692.5,451h16.3l5.09-47.6,1.09-1c2.95-2.67,5.81-5.31,8.48-7.86,29.23-27.84,47.16-54.21,56.43-83,11-34,9.89-72-2.93-104.29a150.49,150.49,0,0,0-57-69.8,164.37,164.37,0,0,0-86.34-27.27A149,149,0,0,0,575,120.4c-20.8,8.19-40.07,20.8-54.25,35.49C493.69,184,482,229.18,480.3,259.37c-1.87,32.41,6.46,64.3,23.45,89.82,9.22,13.84,21.94,25.73,33.17,36.22,4.8,4.49,9.68,8.85,14.5,13,.18.15.79.57,1.24.88,2.8,1.91,4.83,3.43,5.53,5.54,1.58,4.74,4.41,34.43,5.48,46.2h15.94c-1.94-44.18-4.45-53.58-5.1-55.31-4.57-4.31-9.33-8.63-14-12.81-26.5-24-53.91-48.83-61.51-86.82-5.18-25.87-2.63-54.07,7.38-81.57,9.28-25.5,23.77-46.63,41.89-61.13A118.24,118.24,0,0,1,587,133.08a136.48,136.48,0,0,1,27.16-5.55,144.78,144.78,0,0,1,102.74,29.11c30,22.89,48.82,55.64,53,92.22a135.36,135.36,0,0,1-8.19,63.62,157.62,157.62,0,0,1-34.54,54c-2.41,2.47-23.17,23.76-28.63,28.08C696.32,399,693.82,425.76,692.5,451Z"/></svg>