<svg xmlns="http://www.w3.org/2000/svg" xmlns:xlink="http://www.w3.org/1999/xlink" viewBox="0 0 554.93 270.48"><defs><style>.cls-1,.cls-9{fill:none;}.cls-2{fill:#39b54a;}.cls-3{opacity:0.6;}.cls-4{clip-path:url(#clip-path);}.cls-5{fill:#fff;}.cls-6{fill:url(#_10_dpi_50_);}.cls-7,.cls-8{fill:#333;}.cls-8{opacity:0.2;}.cls-9{stroke:#333;stroke-miterlimit:10;stroke-width:4px;}</style><clipPath id="clip-path"><path class="cls-1" d="M323.43,189.43H238.81l-.16-1.87c-.77-8.61-2.19-22.76-2.83-25.3a15.82,15.82,0,0,0-1.42-1,12.39,12.39,0,0,1-1-.73c-2.61-2.23-5.25-4.59-7.84-7-6.14-5.73-13.09-12.23-18.25-20-9.53-14.3-14.2-32.16-13.15-50.27,1-16.75,7.48-41.89,22.67-57.63a87.2,87.2,0,0,1,30.3-19.84A83.45,83.45,0,0,1,279.87,0a91.55,91.55,0,0,1,48.05,15.18,84.08,84.08,0,0,1,31.87,39,86.33,86.33,0,0,1,1.65,58.22c-5.15,16-15,30.54-31.08,45.83-1.27,1.21-2.61,2.46-4,3.72Z"/></clipPath><pattern id="_10_dpi_50_" data-name="10 dpi 50%" width="30" height="30" patternTransform="translate(-48 -10.45)" patternUnits="userSpaceOnUse" viewBox="0 0 30 30"><rect class="cls-1" width="30" height="30"/><path class="cls-2" d="M29.4,33a3.6,3.6,0,1,0-3.6-3.6A3.6,3.6,0,0,0,29.4,33Z"/><path class="cls-2" d="M15,33a3.6,3.6,0,1,0-3.6-3.6A3.6,3.6,0,0,0,15,33Z"/><circle class="cls-2" cx="29.4" cy="15" r="3.6"/><path class="cls-2" d="M15,18.6A3.6,3.6,0,1,0,11.4,15,3.6,3.6,0,0,0,15,18.6Z"/><path class="cls-2" d="M7.8,25.8a3.6,3.6,0,1,0-3.6-3.6A3.6,3.6,0,0,0,7.8,25.8Z"/><path class="cls-2" d="M22.2,25.8a3.6,3.6,0,1,0-3.6-3.6A3.6,3.6,0,0,0,22.2,25.8Z"/><path class="cls-2" d="M7.8,11.4A3.6,3.6,0,1,0,4.2,7.8,3.6,3.6,0,0,0,7.8,11.4Z"/><path class="cls-2" d="M22.2,11.4a3.6,3.6,0,1,0-3.6-3.6A3.6,3.6,0,0,0,22.2,11.4Z"/><path class="cls-2" d="M-.6,33A3.6,3.6,0,0,0,3,29.4,3.6,3.6,0,0,0-.6,25.8a3.6,3.6,0,0,0-3.6,3.6A3.6,3.6,0,0,0-.6,33Z"/><circle class="cls-2" cx="-0.6" cy="15" r="3.6"/><path class="cls-2" d="M29.4,3A3.6,3.6,0,0,0,33-.6a3.6,3.6,0,0,0-3.6-3.6A3.6,3.6,0,0,0,25.8-.6,3.6,3.6,0,0,0,29.4,3Z"/><path class="cls-2" d="M15,3A3.6,3.6,0,0,0,18.6-.6,3.6,3.6,0,0,0,15-4.2,3.6,3.6,0,0,0,11.4-.6,3.6,3.6,0,0,0,15,3Z"/><path class="cls-2" d="M-.6,3A3.6,3.6,0,0,0,3-.6,3.6,3.6,0,0,0-.6-4.2,3.6,3.6,0,0,0-4.2-.6,3.6,3.6,0,0,0-.6,3Z"/></pattern></defs><title>landing bg</title><g id="Layer_2" data-name="Layer 2"><g id="Layer_1-2" data-name="Layer 1"><g class="cls-3"><g class="cls-4"><path class="cls-2" d="M323.43,189.43H238.81l-.16-1.87c-.77-8.61-2.19-22.76-2.83-25.3a15.82,15.82,0,0,0-1.42-1,12.39,12.39,0,0,1-1-.73c-2.61-2.23-5.25-4.59-7.84-7-6.14-5.73-13.09-12.23-18.25-20-9.53-14.3-14.2-32.16-13.15-50.27,1-16.75,7.48-41.89,22.67-57.63a87.2,87.2,0,0,1,30.3-19.84A83.45,83.45,0,0,1,279.87,0a91.55,91.55,0,0,1,48.05,15.18,84.08,84.08,0,0,1,31.87,39,86.33,86.33,0,0,1,1.65,58.22c-5.15,16-15,30.54-31.08,45.83-1.27,1.21-2.61,2.46-4,3.72Z"/><rect class="cls-5" x="281.7" y="50.98" width="102" height="10" transform="translate(57.86 251.65) rotate(-45)"/><rect class="cls-5" x="293.7" y="62.98" width="102" height="10" transform="translate(52.89 263.65) rotate(-45)"/><rect class="cls-5" x="324.18" y="67.33" width="102" height="62.28" transform="translate(40.26 294.13) rotate(-45)"/><polygon class="cls-6" points="433.26 84.42 361.14 156.54 317.1 112.51 389.23 40.38 433.26 84.42"/></g></g><path class="cls-7" d="M168.24,179.59,54.45,216.76a2.43,2.43,0,0,0-1.56,3.06l7.78,23.79a2.42,2.42,0,0,0,3.06,1.56L177.52,208a2.42,2.42,0,0,0,1.56-3.06l-7.77-23.79A2.43,2.43,0,0,0,168.24,179.59Zm5.46,24.54L64.54,239.79l-6.26-19.16L167.44,185Z"/><path class="cls-7" d="M166.76,200.59l-2.51-1.27a7.78,7.78,0,1,0-2.2,4.33l2.5,1.28a2.47,2.47,0,0,0,1.86.14,2.43,2.43,0,0,0,.35-4.48Zm-7.6-1.13a2.92,2.92,0,0,1-1.69,1.45,2.86,2.86,0,0,1-2.22-.18,2.9,2.9,0,1,1,3.91-1.27Z"/><path class="cls-7" d="M140.88,208.38a2.47,2.47,0,0,0-.28-.38,2.73,2.73,0,0,0-.34-.34,2.7,2.7,0,0,0-.4-.25,2.2,2.2,0,0,0-.45-.17,1.86,1.86,0,0,0-.47-.09,2.48,2.48,0,0,0-.47,0,2.44,2.44,0,0,0-.91.3,2.7,2.7,0,0,0-.39.27,2.05,2.05,0,0,0-.32.34,2.19,2.19,0,0,0-.26.41,2.39,2.39,0,0,0-.18.44,2.43,2.43,0,0,0-.08.47,2.57,2.57,0,0,0,0,.48,2.36,2.36,0,0,0,.1.46,2.48,2.48,0,0,0,.2.44,2.09,2.09,0,0,0,.27.39,2.65,2.65,0,0,0,.34.33,2.48,2.48,0,0,0,.4.26,2.75,2.75,0,0,0,.45.17,2.5,2.5,0,0,0,.94.07,2.43,2.43,0,0,0,.91-.29,2.14,2.14,0,0,0,.39-.28,2.65,2.65,0,0,0,.33-.34,2.75,2.75,0,0,0,.26-.4,2.45,2.45,0,0,0,.14-1.86A4.17,4.17,0,0,0,140.88,208.38Z"/><path class="cls-7" d="M129.23,210.13l-48.06,15.7a2.43,2.43,0,1,0,1.51,4.62l48.06-15.7a2.43,2.43,0,1,0-1.51-4.62Z"/><path class="cls-7" d="M144,85.49,74.23,88.11A2.29,2.29,0,0,0,72,90.49l1.7,45.28A2.29,2.29,0,0,0,76.1,138l69.72-2.62A2.29,2.29,0,0,0,148,133l-1.7-45.28A2.29,2.29,0,0,0,144,85.49Zm-42.62,46.94-19.49.73,12.55-15.69,9.92,10.65Zm5.74-.21,4.07-5.87,11.13-.42a2.3,2.3,0,0,0-.17-4.59l-7.69.29,1.53-2.21,14.42-.54,9.8,12.09Zm12.14-17.52,3.58-5.16,3.95,4.87Zm24,12.76-18.79-23.2a2.3,2.3,0,0,0-3.68.14L107,124.26l-11-11.87a2.34,2.34,0,0,0-1.77-.73,2.3,2.3,0,0,0-1.7.86L78.12,130.46,76.69,92.61l65.13-2.44Z"/><path class="cls-7" d="M103.54,94.24a8.13,8.13,0,1,0,8.42,7.82A8.15,8.15,0,0,0,103.54,94.24Zm.43,11.65a3.53,3.53,0,1,1,3.4-3.66A3.53,3.53,0,0,1,104,105.89Z"/><path class="cls-7" d="M63.78,161.43H2a2,2,0,0,0-2,2v21a2,2,0,0,0,2,2H63.78a2,2,0,0,0,2-2v-21A2.05,2.05,0,0,0,63.78,161.43Zm-2.05,21H4.08V165.52H61.73v16.95Z"/><path class="cls-7" d="M13.39,173.6a2.91,2.91,0,0,0-.12-.39,1.7,1.7,0,0,0-.19-.35,1.87,1.87,0,0,0-.56-.56,1.7,1.7,0,0,0-.35-.19,2.52,2.52,0,0,0-.39-.12,2.1,2.1,0,0,0-.79,0,2.91,2.91,0,0,0-.39.12,1.7,1.7,0,0,0-.35.19,2.42,2.42,0,0,0-.31.25,1.89,1.89,0,0,0-.25.31,1.7,1.7,0,0,0-.19.35,2.91,2.91,0,0,0-.12.39,2,2,0,0,0,0,.79,2.91,2.91,0,0,0,.12.39,1.7,1.7,0,0,0,.19.35,2.42,2.42,0,0,0,.25.31,2.07,2.07,0,0,0,1.45.6,2.58,2.58,0,0,0,.39,0,2.52,2.52,0,0,0,.39-.12,1.7,1.7,0,0,0,.35-.19,1.89,1.89,0,0,0,.31-.25,2.42,2.42,0,0,0,.25-.31,1.7,1.7,0,0,0,.19-.35,2.91,2.91,0,0,0,.12-.39,2,2,0,0,0,0-.79Z"/><path class="cls-7" d="M53.42,172H19.13a2,2,0,0,0,0,4.09H53.42a2,2,0,1,0,0-4.09Z"/><path class="cls-7" d="M248.53,270.48c-3.18,0-8.23-1.81-10.55-8.94L229.52,237c-2.94.26-8.35-.3-11-7.28-2.8-7.41-5.38-14.4-5.76-15.45-.6-1.14-3.62-7.59,1.22-12.25a12.24,12.24,0,0,1,7.86-3.14h97.58c.56,0,6.41,0,9.34,4.13,2,2.82,2.1,6.68.3,11.47-4.94,13.1-7.33,17.69-7.43,17.88a8.92,8.92,0,0,1-2.83,3,10.36,10.36,0,0,1-7,1.6l-7.91,26.88c-.93,2.66-4.9,7.41-13.26,6.47l-41.06.12A6.79,6.79,0,0,1,248.53,270.48Zm-16.36-38.37.67,1.88,9,26.24c2.24,6.87,7,6.12,7.18,6.09l.17,0h.18l41.47-.13.12,0c7,.84,8.85-3.31,9-3.7l8.93-30.36,1.91.47c5,1.22,6.94-1.75,7.18-2.17s2.54-5,7.21-17.4c1.29-3.44,1.36-6,.2-7.63-1.74-2.44-5.88-2.41-5.92-2.4H221.86a8.12,8.12,0,0,0-5,2c-2.94,2.83-.42,7.38-.4,7.43l.08.14.06.16c0,.07,2.78,7.56,5.8,15.55,1,2.58,2.54,4.11,4.67,4.55a7.06,7.06,0,0,0,3.21-.11Z"/><path class="cls-7" d="M277.8,195.89H265.09V136.07a53.44,53.44,0,0,1-12.11-.71c-10.67-1.86-19.42-6.88-25.3-14.51a58.77,58.77,0,0,1-10.43-33.62V85.86l1.27-.53c.9-.37,22.21-9,39.66-.29,8.47,4.22,14.5,11.77,18,22.47a32.57,32.57,0,0,1,7.77-4.64c6.24-2.64,16.71-4.86,31.19-.4l1.59.49-.14,1.65c-.07.79-1.8,19.49-15.09,28-.9.7-6.7,4.84-17,4.84a42.21,42.21,0,0,1-6.64-.54Zm-8.59-4.12h4.47V131.9l2.49.53c15,3.19,22.73-3,22.8-3.08l.21-.15c9.5-6,12.33-18.74,13.05-23.28-24.13-6.69-35.42,6.56-35.53,6.7l-2.56,3.1-1-3.89c-2.93-11.24-8.57-19-16.76-23.09-13.46-6.72-30.25-1.73-35-.08a55.53,55.53,0,0,0,9.56,29.68c12.69,16.47,35.69,13.48,35.93,13.45l2.34-.33v60.31Z"/><path class="cls-7" d="M260.93,127.35a34.29,34.29,0,0,1-19.79-5.89c-7.83-5.53-12.65-14.63-14.34-27l-.23-1.72,1.66-.52c.73-.22,17.87-5.41,29.86,3.6,7.48,5.62,11.14,15.39,10.87,29.05l0,1.64-1.6.33A34,34,0,0,1,260.93,127.35ZM231.15,95.67c1.72,10.31,5.88,17.85,12.36,22.43,8.05,5.69,17.6,5.33,21.35,4.91-.08-11.34-3.18-19.39-9.24-24C247.3,92.82,235.51,94.69,231.15,95.67Z"/><path class="cls-7" d="M284.92,128.63a29,29,0,0,1-8.52-1.38l-2-.63.66-2a25.06,25.06,0,0,1,6.08-9.17c4.08-3.92,11.38-8.15,23.06-6l2.23.41-.62,2.17c-.11.39-2.81,9.67-11.16,14.2A20.1,20.1,0,0,1,284.92,128.63Zm-5.06-4.71c4.89,1.1,9.2.67,12.83-1.31a20.16,20.16,0,0,0,8.3-9.47C287.81,111.77,281.91,120,279.86,123.92Z"/><path class="cls-8" d="M314.43,195.89H297.75l.1-2.16c0-.08.39-8.07,1.06-16.18,1.44-17.27,2.75-18.23,3.71-18.93,1.68-1.23,10.05-9.64,14.92-14.66A79.45,79.45,0,0,0,335,116.69a67.11,67.11,0,0,0-22.48-78.13A72.89,72.89,0,0,0,260.81,23.9a69.28,69.28,0,0,0-13.62,2.78A58.68,58.68,0,0,0,228,36.76c-9.05,7.23-16.3,17.84-21,30.69-5.06,13.91-6.36,28.14-3.76,41.15,3.78,18.86,17.21,31,31.44,43.91,2.45,2.23,5,4.52,7.43,6.83,1,.73,1.48,2.53,2,5.52.88,5.55,1.61,15.27,2.17,28.88l.09,2.15H229.81l-.16-1.88c-.77-8.61-2.19-22.75-2.83-25.29a14.17,14.17,0,0,0-1.42-1.06,12.39,12.39,0,0,1-1-.73c-2.61-2.23-5.25-4.59-7.84-7-6.14-5.73-13.09-12.22-18.25-20-9.53-14.3-14.2-32.15-13.15-50.27,1-16.75,7.48-41.89,22.67-57.63a87.2,87.2,0,0,1,30.3-19.84,83.45,83.45,0,0,1,32.75-5.7,91.55,91.55,0,0,1,48.05,15.18,84.13,84.13,0,0,1,31.87,39,86.33,86.33,0,0,1,1.65,58.22c-5.15,16-15,30.54-31.08,45.83-1.27,1.21-2.61,2.46-4,3.73Z"/><path class="cls-7" d="M314.43,195.89H297.75l.1-2.16c0-.08.39-8.07,1.06-16.18,1.44-17.27,2.75-18.23,3.71-18.93,1.68-1.23,10.05-9.64,14.92-14.66A79.45,79.45,0,0,0,335,116.69a67.11,67.11,0,0,0-22.48-78.13A72.89,72.89,0,0,0,260.81,23.9a69.28,69.28,0,0,0-13.62,2.78A58.68,58.68,0,0,0,228,36.76c-9.05,7.23-16.3,17.84-21,30.69-5.06,13.91-6.36,28.14-3.76,41.15,3.78,18.86,17.21,31,31.44,43.91,2.45,2.23,5,4.52,7.43,6.83,1,.73,1.48,2.53,2,5.52.88,5.55,1.61,15.27,2.17,28.88l.09,2.15H229.81l-.16-1.88c-.77-8.61-2.19-22.75-2.83-25.29a14.17,14.17,0,0,0-1.42-1.06,12.39,12.39,0,0,1-1-.73c-2.61-2.23-5.25-4.59-7.84-7-6.14-5.73-13.09-12.22-18.25-20-9.53-14.3-14.2-32.15-13.15-50.27,1-16.75,7.48-41.89,22.67-57.63a87.2,87.2,0,0,1,30.3-19.84,83.45,83.45,0,0,1,32.75-5.7,91.55,91.55,0,0,1,48.05,15.18,84.13,84.13,0,0,1,31.87,39,86.33,86.33,0,0,1,1.65,58.22c-5.15,16-15,30.54-31.08,45.83-1.27,1.21-2.61,2.46-4,3.73Zm-12.36-4.12h8.66l2.71-25.3.58-.53c1.57-1.42,3.08-2.82,4.5-4.18,15.54-14.8,25.08-28.82,30-44.11A83.35,83.35,0,0,0,347,62.21,80,80,0,0,0,316.65,25.1a87.47,87.47,0,0,0-45.9-14.5A79.2,79.2,0,0,0,239.62,16a82.82,82.82,0,0,0-28.84,18.87c-14.41,14.92-20.6,39-21.53,55-1,17.23,3.44,34.18,12.47,47.75,4.9,7.36,11.67,13.68,17.64,19.26,2.55,2.38,5.14,4.7,7.71,6.89.09.08.42.3.66.47,1.48,1,2.56,1.82,2.93,2.94.84,2.52,2.35,18.3,2.92,24.56h8.47c-1-23.48-2.37-28.48-2.71-29.4-2.43-2.29-5-4.59-7.42-6.81-14.09-12.76-28.65-26-32.7-46.16-2.75-13.75-1.39-28.74,3.93-43.36,4.93-13.56,12.63-24.79,22.27-32.5A62.86,62.86,0,0,1,246,22.76a72.26,72.26,0,0,1,14.44-3A77,77,0,0,1,315,35.28a71.22,71.22,0,0,1,23.84,82.86,83.82,83.82,0,0,1-18.36,28.7c-1.28,1.31-12.32,12.63-15.22,14.93C304.1,164.12,302.77,178.36,302.07,191.77Z"/><rect class="cls-9" x="395.98" y="58.45" width="46.6" height="77.67" rx="3" ry="3" transform="translate(104.89 -196.68) rotate(30.01)"/><rect class="cls-9" x="402.97" y="68.08" width="34.95" height="54.37" transform="translate(104.03 -197.54) rotate(30.01)"/><line class="cls-9" x1="428.98" y1="63.42" x2="443.78" y2="71.96"/><circle class="cls-9" cx="403.36" cy="124.86" r="3.11"/><rect class="cls-9" x="483.13" y="106.07" width="62" height="44" transform="translate(19.96 319.19) rotate(-35.13)"/><circle class="cls-9" cx="513.44" cy="127.95" r="14.5"/><polygon class="cls-9" points="518.37 125.39 508.12 126.31 514.04 134.73 518.37 125.39"/><rect class="cls-9" x="370.7" y="171.43" width="113" height="81" rx="2" ry="2" transform="translate(79.7 -114.65) rotate(16.84)"/><line class="cls-9" x1="380.22" y1="172.12" x2="488.38" y2="204.85"/><circle class="cls-9" cx="393.07" cy="167.65" r="1"/><circle class="cls-9" cx="402.64" cy="170.55" r="1"/><circle class="cls-9" cx="412.21" cy="173.44" r="1"/><rect class="cls-9" x="389.9" y="194.55" width="10" height="10" transform="translate(74.72 -105.83) rotate(16.84)"/><rect class="cls-9" x="384.11" y="213.69" width="10" height="10" transform="translate(80.02 -103.33) rotate(16.84)"/><line class="cls-9" x1="409.26" y1="203.89" x2="465.73" y2="220.98"/><line class="cls-9" x1="403.47" y1="223.04" x2="459.94" y2="240.12"/></g></g></svg>