<?xml version="1.0" encoding="UTF-8"?>
<svg width="34px" height="53px" viewBox="0 0 34 53" version="1.1" xmlns="http://www.w3.org/2000/svg" xmlns:xlink="http://www.w3.org/1999/xlink">
    <!-- Generator: Sketch 50.2 (55047) - http://www.bohemiancoding.com/sketch -->
    <title>syngenta_logo copy</title>
    <desc>Created with Sketch.</desc>
    <defs></defs>
    <g id="Internal-Facing" stroke="none" stroke-width="1" fill="none" fill-rule="evenodd" fill-opacity="0.72">
        <g id="Approach-page" transform="translate(-50.000000, -3951.000000)" fill="#000000" fill-rule="nonzero">
            <g id="syngenta_logo-copy" transform="translate(50.000000, 3951.000000)">
                <path d="M9.06066261,37.9923325 C9.06066261,37.9923325 8.64325264,33.230845 8.45352083,32.671121 C8.40039592,32.5101045 7.9678074,32.264746 7.84637905,32.1574017 C7.30754072,31.6973546 6.78388093,31.2219726 6.26781042,30.7312557 C4.96245559,29.4967959 3.6191544,28.2163315 2.62495973,26.7058435 C0.689695301,23.7692094 -0.175481737,20.1655071 0.0294286143,16.6614816 C0.24951751,12.7740835 1.77496124,7.98192616 4.51468852,5.11429919 C6.1615606,3.39678998 8.3245032,2.01664866 10.5178029,1.1502266 C12.5820849,0.329809259 14.7829739,-0.0612307837 16.9990414,0.00777628255 C23.8749221,0.214797481 30.2650893,4.3015493 32.8378526,10.8495531 C34.2874036,14.5375975 34.3632963,18.7316936 33.1641913,22.4964124 C32.0030327,26.1384521 29.6807154,29.1057559 26.9713452,31.7126895 C26.6677743,32.0040527 26.3566141,32.2954159 26.0454539,32.5791116 L25.4762585,37.9846651 L22.9034952,37.9846651 C22.9034952,37.9846651 23.2070661,31.4673311 23.7003688,31.1069608 C24.1936715,30.7465906 26.7360777,28.1013197 26.7816133,28.055315 C29.9539292,24.7659782 31.7981223,20.2038443 31.2744625,15.5803709 C30.3485713,7.49120925 22.8200132,1.93230669 14.9271701,2.73738913 C13.9633325,2.837066 13.0070842,3.0287523 12.081193,3.32778292 C10.6164634,3.78016257 9.25039442,4.50857049 8.0512894,5.46700197 C6.00218589,7.12317156 4.56022416,9.45407691 3.66469003,11.9459988 C2.67049536,14.7062814 2.31379957,17.7272574 2.88299499,20.6102193 C3.82406475,25.3410371 7.64905797,28.139657 10.9276236,31.2756448 C10.9276236,31.2756448 11.3222657,31.313982 11.5954795,38 L9.06066261,37.9923325 Z" id="Shape"></path>
                <path d="M6.69584954,40.0001535 L26.2299934,40.0001535 C26.2299934,40.0001535 28.7587336,39.9352768 27.7711783,42.4726795 C26.7836229,45.0100822 26.3048082,45.8751059 26.3048082,45.8751059 C26.3048082,45.8751059 25.7885861,46.8122148 24.4119938,46.487831 L22.7286609,51.9879397 C22.7286609,51.9879397 22.294735,53.1773472 20.4842169,52.9682998 L12.2097002,52.9899254 C12.2097002,52.9899254 10.8705153,53.2133899 10.3168858,51.5554279 L8.50636767,46.502248 C8.50636767,46.502248 7.03251614,46.963594 6.41903479,45.4065514 C5.80555344,43.8495088 5.25940541,42.4078027 5.25940541,42.4078027 C5.25940541,42.4078027 4.58607223,41.2616464 5.40903501,40.4975421 C5.76066456,40.1875753 6.21703483,40.0073621 6.69584954,40.0001535 Z" id="Shape"></path>
                <path d="M17.1387033,20.5837612 C14.9214145,12.1226263 6,15.7913506 6,15.7913506 C6,19.6461156 7.99332024,22.2283617 7.99332024,22.2283617 C10.7108055,25.7408117 15.5485265,25.0636233 15.5485265,25.0636233 L15.5485265,37 L17.2656189,37 L17.2656189,25.1826894 C20.475835,25.8673195 22.1630648,24.483176 22.1630648,24.483176 C24.6939096,22.8832253 25,19.214501 25,19.214501 C19.6396857,17.5699005 17.1387033,20.5837612 17.1387033,20.5837612 Z M15.5037328,23.2627485 C15.5037328,23.2627485 8.91905697,24.6320086 7.90373281,17.1680524 C7.90373281,17.1680524 15.6679764,14.7644054 15.5037328,23.2627485 Z M17.5194499,23.3594897 C17.5194499,23.3594897 18.6915521,19.8470397 22.8722986,20.6135277 C22.8722986,20.6135277 21.7300589,24.6617752 17.5194499,23.3594897 Z" id="Shape"></path>
            </g>
        </g>
    </g>
</svg>