<svg xmlns="http://www.w3.org/2000/svg" viewBox="0 0 941.5 318"><defs><style>.cls-1,.cls-13,.cls-5{fill:none;}.cls-11,.cls-2{fill:#fff;}.cls-3{fill:#ebd5b9;}.cls-10,.cls-11,.cls-13,.cls-14,.cls-15,.cls-3,.cls-5,.cls-6,.cls-7,.cls-8,.cls-9{stroke:#000;stroke-linejoin:round;stroke-width:5px;}.cls-4{fill:#8cc63f;}.cls-6{fill:#1b1464;}.cls-7{fill:#007c70;}.cls-8{fill:#00a99d;}.cls-9{fill:#c9af93;}.cls-10{fill:#604e4b;}.cls-12{fill:#39b54a;}.cls-13{stroke-linecap:round;}.cls-14{fill:#736357;}</style></defs><title>uiuc_bg</title><g id="Layer_2" data-name="Layer 2"><g id="Layer_1-2" data-name="Layer 1"><path class="cls-1" d="M713.33,183l82.29-1.1-17,48.32a43.3,43.3,0,0,0,13.05-14.32L786.4,262.3l-35.66,8.05-57.18-48.44Z"/><path class="cls-2" d="M688.91,207.52A24.57,24.57,0,0,1,713.33,183l-19.77,39A24.51,24.51,0,0,1,688.91,207.52Z"/><path class="cls-2" d="M754.63,150.83a42.89,42.89,0,0,1,41,31L713.33,183A42.9,42.9,0,0,1,754.63,150.83Z"/><path class="cls-2" d="M750.74,270.35a39.33,39.33,0,0,1-57.18-48.44Z"/><path class="cls-2" d="M778.67,230.17l17-48.32a39.35,39.35,0,0,1,17,7.24s-1.43.31-2.11,17.41c-1,25,11.87,37.77,11.87,37.77a39.74,39.74,0,0,1-33.28,18.14c-.91,0-1.8,0-2.69-.11l5.32-46.45A43.3,43.3,0,0,1,778.67,230.17Z"/><path class="cls-2" d="M765.11,275.15a23.83,23.83,0,0,1-14.37-4.8l35.66-8.05A24.17,24.17,0,0,1,765.11,275.15Z"/><polygon class="cls-2" points="799.18 183.5 792.18 179.5 747.18 171.5 715.18 181.5 710.18 184.5 693.56 220.33 693.18 225.5 748.18 270.5 755.18 270.5 784.63 263.81 790.18 259.5 799.18 183.5"/><path class="cls-1" d="M294.36,180l-82.29-1.1,17,48.32A43.33,43.33,0,0,1,216,212.85l5.33,46.45,35.65,8.05,57.19-48.44Z"/><path class="cls-2" d="M318.78,204.52A24.57,24.57,0,0,0,294.36,180l19.77,39A24.51,24.51,0,0,0,318.78,204.52Z"/><path class="cls-2" d="M253.06,147.83a42.88,42.88,0,0,0-41,31l82.29,1.1A42.91,42.91,0,0,0,253.06,147.83Z"/><path class="cls-2" d="M256.94,267.35a39.34,39.34,0,0,0,57.19-48.44Z"/><path class="cls-2" d="M229,227.17l-17-48.32a39.35,39.35,0,0,0-17,7.24S177.5,175.5,181.5,208.5s3.81,32.77,3.81,32.77a39.76,39.76,0,0,0,33.28,18.14c.91,0,1.81,0,2.7-.11L216,212.85A43.33,43.33,0,0,0,229,227.17Z"/><path class="cls-2" d="M242.57,272.15a23.83,23.83,0,0,0,14.37-4.8l-35.65-8.05A24.15,24.15,0,0,0,242.57,272.15Z"/><polygon class="cls-2" points="208.5 180.5 215.5 176.5 260.5 168.5 292.5 178.5 297.5 181.5 314.13 217.33 314.5 222.5 259.5 267.5 252.5 267.5 223.05 260.81 217.5 256.5 208.5 180.5"/><polyline class="cls-3" points="625.22 116.39 646.53 116.39 694.05 132.52 694.05 141.79 632.6 141.79"/><ellipse class="cls-4" cx="152.8" cy="202.82" rx="56.09" ry="56.94"/><polyline class="cls-3" points="295.83 116.39 274.53 116.39 227.01 132.52 227.01 141.79 288.46 141.79"/><line class="cls-5" x1="232.42" y1="141.79" x2="232.42" y2="154.08"/><path class="cls-6" d="M514.62,36.54h6.13V25.85s-7.37-8.19-59.81-8.19-57.36,8.19-57.36,8.19V36.54h6.8C451.35,31.28,480.31,30.84,514.62,36.54Z"/><path class="cls-7" d="M626.45,98l-5.73-7.38a43.33,43.33,0,0,1-7.71.71l-2.13,5.85H578.11L574,90.58h-5.73l-4.92,6.56H500.27l-4.1-6.56h-5.73l-4.1,6.56H434.72l-4.1-6.56h-6.55L420,97.14H356.88l-4.1-8.2h-5.73l-3.28,8.2H309.35c-.79,0-.81-3.3-.63-6.69l-7.56-.69-7.37,6.56v9l.93,1.64H626.45Z"/><path class="cls-8" d="M309.35,97.14h34.42l3.28-8.2h5.73l4.1,8.2H420l4.1-6.56h6.55l4.1,6.56h51.62l4.1-6.56h5.73l4.1,6.56h63.09l4.92-6.56H574l4.1,6.56h32.77L613,91.29c-1.08-.06-1.9-.26-2.13-.71-.82-1.64-12.29-3.28-12.29-3.28s-.36-.44-1.05-1.24c-6.09-7-38-41.79-80.67-49.15l-2.25-.37c-34.31-5.7-63.27-5.26-104.24,0l-2.92.37c-41,5.41-76.19,43.59-80.08,47.94h0l-.37.41.37-.41-8.19,1.64c-8.2,1.63-9,4.09-9,4.09l-1.45-.13C308.54,93.84,308.56,97.14,309.35,97.14Z"/><path class="cls-5" d="M327.38,84.85h0l-.37.41Z"/><path class="cls-5" d="M624,112.71l2.46-4.92V107H294.72l2.34,4.1v14.75H624Z"/><polygon class="cls-9" points="623.99 142.81 632.19 143.02 632.19 129.91 623.99 130.15 623.99 125.81 297.06 125.81 297.06 133.19 288.05 133.19 288.05 144.66 296.25 144.66 296.25 145.07 623.99 145.07 623.99 142.81"/><polygon class="cls-5" points="296.25 145.07 296.25 165.15 357.7 165.15 357.7 159.41 561.72 159.41 561.72 165.15 623.99 165.15 623.99 145.07 296.25 145.07"/><path class="cls-10" d="M561.72,165.15v-5.74h-204v5.74H296.24v31.47a43,43,0,0,1,6.23,70.46H624V165.15Z"/><polygon class="cls-11" points="301.91 267.08 296.25 271.93 296.25 300.34 623.99 300.34 623.99 267.08 301.91 267.08"/><rect class="cls-3" x="315.91" y="114.34" width="22.94" height="7.37"/><rect class="cls-3" x="375.72" y="114.34" width="33.59" height="9.01"/><rect class="cls-3" x="444.55" y="114.34" width="31.14" height="7.37"/><rect class="cls-3" x="510.92" y="114.34" width="33.59" height="9.01"/><rect class="cls-3" x="582.21" y="114.34" width="22.12" height="9.01"/><rect class="cls-3" x="360.98" y="159.41" width="11.47" height="105.7"/><rect class="cls-3" x="412.6" y="159.41" width="11.47" height="105.7"/><rect class="cls-3" x="428.98" y="159.41" width="11.47" height="105.7"/><rect class="cls-3" x="479.78" y="159.41" width="11.47" height="105.7"/><rect class="cls-3" x="496.17" y="159.41" width="11.47" height="105.7"/><rect class="cls-3" x="547.79" y="159.41" width="11.47" height="105.7"/><rect class="cls-3" x="377.77" y="170.47" width="30.32" height="23.76"/><rect class="cls-3" x="444.14" y="170.47" width="32.77" height="23.76"/><rect class="cls-3" x="512.97" y="170.47" width="29.5" height="23.76"/><path class="cls-5" d="M376.13,265.52V227.83s0-17.21,16.39-17.21,16.39,18,16.39,18v36.87Z"/><path class="cls-5" d="M444.14,265.52V227.83s0-17.21,16.39-17.21,16.39,18,16.39,18v36.87Z"/><path class="cls-5" d="M511.33,265.52V227.83s0-17.21,16.39-17.21,16.38,18,16.38,18v36.87Z"/><path class="cls-5" d="M598.18,86.9s-52.44-10.66-136-10.66S327,84.44,327,84.44"/><path class="cls-5" d="M346.64,79.52a120.66,120.66,0,0,1,22.94-21.3c13.93-9.84,38.51-21.31,38.51-21.31l13.51-1.72S404,45.93,392.52,57.4s-16.39,21.9-16.39,21.9l27.45-1.67s2.05-10.4,11.88-22.69a186.79,186.79,0,0,1,18.06-19.75l12.28-2.13s-9.33,12.3-13.13,19.42c-6.55,12.29-8.19,17.21-8.19,17.21"/><path class="cls-5" d="M455.53,32.6s-4.83,15-6.47,24-3.28,19.66-3.28,19.66"/><path class="cls-5" d="M578.52,81.16a138.82,138.82,0,0,0-21.31-19.67c-12.29-9-40.14-24.58-40.14-24.58S538.82,56,547.38,63.13a73.33,73.33,0,0,1,15.37,18L544.1,79.81s-4.91-10.12-11.47-16.68"/><rect class="cls-11" x="337.62" y="265.52" width="17.21" height="34.41"/><rect class="cls-11" x="562.95" y="264.7" width="18.85" height="35.23"/><rect class="cls-11" x="623.58" y="141.79" width="67.19" height="158.14"/><rect class="cls-5" x="632.6" y="170.47" width="45.88" height="27.04"/><rect class="cls-5" x="630.96" y="205.7" width="49.98" height="4.92"/><rect class="cls-3" x="581.8" y="165.55" width="22.94" height="32.77"/><rect class="cls-3" x="315.5" y="163.92" width="22.12" height="31.96"/><circle class="cls-4" cx="304.85" cy="200.43" r="24.58"/><path class="cls-12" d="M116.41,47.2c-38.09,0-69,31.36-69,70a71.39,71.39,0,0,0,2.26,17.85,65,65,0,0,0-36.55,58.64c0,35.83,28.61,64.88,63.91,64.88S141,229.55,141,193.72a66.09,66.09,0,0,0-.88-10.69,70,70,0,0,0,45.31-65.8C185.39,78.56,154.51,47.2,116.41,47.2Z"/><path class="cls-13" d="M20.42,152.79a41.72,41.72,0,0,1,19.2-51.32"/><path class="cls-13" d="M294.36,180a42.6,42.6,0,0,0-82.29-1.1"/><path class="cls-13" d="M314.13,218.91a39.33,39.33,0,0,1-57.19,48.44"/><path class="cls-13" d="M229,227.17a43.81,43.81,0,0,1-17-48.32"/><path class="cls-13" d="M202.2,142.81l.59,0a24.6,24.6,0,1,0-24.22-24.59,25,25,0,0,0,.81,6.34"/><path class="cls-13" d="M179.38,124.58a24.3,24.3,0,0,0,22.82,18.23"/><path class="cls-13" d="M256.94,267.35a23.83,23.83,0,0,1-14.37,4.8,24.15,24.15,0,0,1-21.28-12.85"/><path class="cls-13" d="M229,227.17a24.85,24.85,0,0,0-7.73,32.13"/><path class="cls-13" d="M229,227.17a24,24,0,0,1,28.45,1"/><path class="cls-13" d="M174.64,124.93a24.5,24.5,0,0,0-20.07,24.23c0,.08,0,.16,0,.24"/><path class="cls-13" d="M179.38,124.58h-.58a24.75,24.75,0,0,0-4.16.36"/><path class="cls-13" d="M154.58,149.4A24.62,24.62,0,0,0,160,164.62"/><path class="cls-13" d="M202.2,142.81a25.06,25.06,0,0,1,.82,6.35A24.6,24.6,0,0,1,187.87,172"/><path class="cls-13" d="M294.36,180h-.16a24.58,24.58,0,1,0,19.93,39"/><path class="cls-13" d="M294.36,180a24.58,24.58,0,0,1,19.77,39"/><path class="cls-13" d="M174.64,124.93c.06-1.19.1-2.39.1-3.6,0-38.68-30.88-70-69-70-31.29,0-57.71,21.17-66.14,50.17"/><path class="cls-13" d="M20.42,152.79a64.16,64.16,0,0,1,18.63-13.62,71,71,0,0,1,.57-37.7"/><path class="cls-13" d="M20.42,152.79a65.13,65.13,0,0,0-17.92,45c0,35.83,28.61,64.88,63.91,64.88a63,63,0,0,0,39.75-14.11"/><path class="cls-13" d="M185.31,241.27a55.49,55.49,0,0,1-79.15,7.32"/><path class="cls-13" d="M185.31,241.27a57.68,57.68,0,0,0,9.77-55.18"/><path class="cls-13" d="M154.58,149.4A55.4,55.4,0,0,0,142.15,148c-31,0-56.09,25.49-56.09,56.94a57.17,57.17,0,0,0,20.1,43.67"/><path class="cls-13" d="M187.87,172a57.41,57.41,0,0,1,7.21,14.13"/><path class="cls-13" d="M195.08,186.09a39.35,39.35,0,0,1,17-7.24"/><path class="cls-13" d="M221.29,259.3c-.89.07-1.79.11-2.7.11a39.76,39.76,0,0,1-33.28-18.14"/><path class="cls-13" d="M212.07,178.85a42.6,42.6,0,0,1,82.29,1.1"/><path class="cls-13" d="M314.13,218.91a39.33,39.33,0,0,1-57.19,48.44"/><path class="cls-13" d="M229,227.17a43.81,43.81,0,0,1-17-48.32"/><path class="cls-13" d="M256.94,267.35a23.83,23.83,0,0,1-14.37,4.8,24.15,24.15,0,0,1-21.28-12.85"/><path class="cls-13" d="M229,227.17a24.85,24.85,0,0,0-7.73,32.13"/><path class="cls-13" d="M229,227.17a24,24,0,0,1,28.45,1"/><polygon class="cls-14" points="51.66 214.36 67.23 226.65 67.23 186.5 82.62 185.98 82.8 208.62 97.55 195.51 101.64 202.06 83.62 221.73 85.26 304.49 64.77 305.31 66.41 239.76 47.56 219.27 51.66 214.36"/><polygon class="cls-11" points="165.79 239.42 154.23 248.55 154.23 218.74 142.81 218.36 142.68 235.16 131.72 225.43 128.68 230.3 142.07 244.9 140.85 306.34 156.06 306.94 154.84 258.28 168.83 243.07 165.79 239.42"/><polygon class="cls-14" points="274.77 245.98 263.21 255.1 263.21 239.22 251.78 238.84 251.65 241.72 251.04 251.45 249.83 312.89 265.03 313.5 263.82 264.83 277.81 249.63 274.77 245.98"/><rect class="cls-11" x="646.53" y="278.63" width="134.38" height="22.12"/><rect class="cls-15" x="459.71" y="2.5" width="4.1" height="14.75"/><circle class="cls-4" cx="716.49" cy="205.85" r="31.01"/><path class="cls-13" d="M713.55,182a42.6,42.6,0,0,1,82.29-1.1"/><path class="cls-13" d="M693.79,220.91A39.32,39.32,0,0,0,751,269.35"/><path class="cls-13" d="M778.89,229.17a43.81,43.81,0,0,0,17-48.32"/><path class="cls-13" d="M828.82,177.81l-.62,0a25.69,25.69,0,1,1,25.3-25.69,26.36,26.36,0,0,1-.85,6.63"/><path class="cls-13" d="M751,269.35a23.83,23.83,0,0,0,14.37,4.8,24.14,24.14,0,0,0,21.28-12.85"/><path class="cls-13" d="M778.89,229.17a24.85,24.85,0,0,1,7.73,32.13"/><circle class="cls-12" cx="879.23" cy="199.15" r="62.27"/><path class="cls-13" d="M778.89,229.17a23.94,23.94,0,0,0-28.44,1"/><path class="cls-13" d="M833.27,126.93a24.5,24.5,0,0,1,20.07,24.23c0,.08,0,.16,0,.24"/><path class="cls-13" d="M828.53,126.58h.59a24.73,24.73,0,0,1,4.15.36"/><path class="cls-13" d="M853.33,151.4a24.62,24.62,0,0,1-5.39,15.22"/><path class="cls-13" d="M713.55,182h.16a24.58,24.58,0,1,1-19.92,39"/><path class="cls-13" d="M713.55,182a24.56,24.56,0,0,0-19.76,39"/><path class="cls-13" d="M822.6,243.27a55.49,55.49,0,0,0,79.15,7.32"/><path class="cls-13" d="M822.6,243.27a57.68,57.68,0,0,1-9.77-55.18"/><path class="cls-13" d="M853.33,151.4A55.42,55.42,0,0,1,865.77,150c31,0,56.08,25.49,56.08,56.94a57.17,57.17,0,0,1-20.1,43.67"/><path class="cls-13" d="M820,174a57.41,57.41,0,0,0-7.21,14.13"/><path class="cls-13" d="M812.83,188.09a39.35,39.35,0,0,0-17-7.24"/><path class="cls-13" d="M786.62,261.3c.89.07,1.79.11,2.7.11a39.76,39.76,0,0,0,33.28-18.14"/><polygon class="cls-14" points="842.12 241.42 853.68 250.55 853.68 220.74 865.11 220.36 865.24 237.16 876.19 227.43 879.23 232.3 865.85 246.9 867.06 308.34 851.85 308.94 853.07 260.28 839.08 245.07 842.12 241.42"/><polygon class="cls-14" points="733.14 247.98 744.7 257.1 744.7 241.22 756.13 240.84 756.26 243.72 756.87 253.45 758.09 314.89 742.88 315.5 744.09 266.83 730.1 251.63 733.14 247.98"/></g></g></svg>