<svg xmlns="http://www.w3.org/2000/svg" viewBox="0 0 101.88 241.49"><defs><style>.cls-1{fill:#d9e021;}.cls-1,.cls-2,.cls-3{stroke:#000;stroke-miterlimit:10;stroke-width:4px;}.cls-2{fill:#79aa2d;}.cls-3{fill:none;}</style></defs><title>Asset 6</title><g id="Layer_2" data-name="Layer 2"><g id="Layer_1-2" data-name="Layer 1"><path class="cls-1" d="M51,99A49.48,49.48,0,0,0,2,50,49.49,49.49,0,0,0,51,99Z"/><path class="cls-1" d="M99.87,49.88A49.49,49.49,0,0,0,51.14,99.1,49.49,49.49,0,0,0,99.87,49.88Z"/><path class="cls-2" d="M50.77,2.86a49.49,49.49,0,0,0,.35,69.26A49.48,49.48,0,0,0,50.77,2.86Z"/><path class="cls-2" d="M51,142A49.48,49.48,0,0,0,2,93,49.49,49.49,0,0,0,51,142Z"/><path class="cls-2" d="M99.87,92.88A49.49,49.49,0,0,0,51.14,142.1,49.49,49.49,0,0,0,99.87,92.88Z"/><path class="cls-1" d="M51,185A49.48,49.48,0,0,0,2,136,49.49,49.49,0,0,0,51,185Z"/><path class="cls-1" d="M99.87,135.88A49.49,49.49,0,0,0,51.14,185.1,49.49,49.49,0,0,0,99.87,135.88Z"/><line class="cls-3" x1="50.95" y1="71.49" x2="50.95" y2="241.49"/></g></g></svg>