<svg xmlns="http://www.w3.org/2000/svg" viewBox="0 0 945 249.97"><defs><style>.cls-1{fill:#fff;}.cls-2{fill:#9bf;}.cls-3{fill:#ffc66c;}.cls-4{fill:#ffefd5;}.cls-15,.cls-16,.cls-17,.cls-5{fill:none;stroke:#666;stroke-miterlimit:10;}.cls-5{stroke-width:7px;}.cls-6{fill:#edf2fa;}.cls-7{fill:#7d9bff;}.cls-8{fill:#231f20;}.cls-9{fill:#ade5ff;}.cls-10{fill:#d8fb93;}.cls-11{fill:#b3b6c3;}.cls-12{fill:#ff5d5d;}.cls-13{fill:#ff9155;}.cls-14{fill:#f5c86e;}.cls-15{stroke-width:16px;}.cls-16,.cls-17{stroke-linecap:round;stroke-width:5px;}.cls-17{stroke-dasharray:5.12 12.29;}</style></defs><title>flow</title><g id="Layer_2" data-name="Layer 2"><g id="Layer_1-2" data-name="Layer 1"><path class="cls-1" d="M454.76,97.25H443.3a4.37,4.37,0,0,0-4.37,4.37V154.7a4.37,4.37,0,0,0,4.37,4.37h46.39a4.37,4.37,0,0,0,4.37-4.37V101.62a4.37,4.37,0,0,0-4.37-4.37Z"/><path class="cls-2" d="M479.59,102.85V97.12h-1.23a4.12,4.12,0,0,0-1.5-2.19H472a4.05,4.05,0,0,0-1.49,2.19h-7.62a1.54,1.54,0,0,0-1.54,1.53v4.2Z"/><path class="cls-2" d="M450.67,142.15h3.82v6.55h-3.82Z"/><path class="cls-3" d="M499.39,144.42a7.32,7.32,0,0,0,4.15-6.61v-6.58h-8.3v6.58A7.34,7.34,0,0,0,499.39,144.42Z"/><path class="cls-4" d="M494.77,131.3h8.77v5.52h-8.77Z"/><path class="cls-4" d="M499.16,145.77a7.33,7.33,0,0,0-4.39,6.71v6.59h8.77v-6.59A7.32,7.32,0,0,0,499.16,145.77Z"/><path class="cls-3" d="M494.77,153.62h8.77v5.52h-8.77Z"/><path d="M494.06,123.45a1.35,1.35,0,0,0-1.36,1.37,1.35,1.35,0,0,0,1.36,1.36,1.37,1.37,0,0,0,1.36-1.36,1.37,1.37,0,0,0-1.36-1.37Z"/><path d="M486.15,111.31H473.27a1.37,1.37,0,0,0,0,2.73h12.88a1.37,1.37,0,0,0,0-2.73Z"/><path d="M466.5,114a1.37,1.37,0,0,0,1-.4,1.41,1.41,0,0,0,.4-1,1.37,1.37,0,0,0-1.36-1.36,1.41,1.41,0,0,0-1,.4,1.37,1.37,0,0,0-.4,1A1.37,1.37,0,0,0,466.5,114Z"/><path d="M466.49,96.44a1.35,1.35,0,0,0-1,.4,1.37,1.37,0,0,0-.4,1,1.41,1.41,0,0,0,.4,1,1.39,1.39,0,0,0,1.93,0,1.41,1.41,0,0,0,.4-1,1.37,1.37,0,0,0-.4-1A1.35,1.35,0,0,0,466.49,96.44Z"/><path d="M487.37,119.22a1.36,1.36,0,0,0-1.36-1.36H466.5a1.37,1.37,0,1,0,0,2.73H486A1.36,1.36,0,0,0,487.37,119.22Z"/><path d="M482,126.05H466.5a1.36,1.36,0,1,0,0,2.72H482a1.36,1.36,0,1,0,0-2.72Z"/><path d="M482,132.6H466.5a1.36,1.36,0,1,0,0,2.72H482a1.36,1.36,0,1,0,0-2.72Z"/><path d="M482,140.78H466.5a1.37,1.37,0,1,0,0,2.73H482a1.37,1.37,0,1,0,0-2.73Z"/><path d="M482,147.33H466.5a1.37,1.37,0,1,0,0,2.73H482a1.37,1.37,0,1,0,0-2.73Z"/><path d="M457.82,126.2a1.35,1.35,0,0,0-1.93,0L450.05,132l-1.79-1.8a1.37,1.37,0,0,0-1.93,0,1.35,1.35,0,0,0,0,1.93l2.76,2.76a1.36,1.36,0,0,0,1.93,0l6.8-6.79A1.37,1.37,0,0,0,457.82,126.2Z"/><path d="M457.82,111a1.35,1.35,0,0,0-1.93,0l-5.84,5.83-1.79-1.8a1.37,1.37,0,0,0-1.93,0,1.35,1.35,0,0,0,0,1.93l2.76,2.77a1.36,1.36,0,0,0,1.93,0l6.8-6.8A1.37,1.37,0,0,0,457.82,111Z"/><path d="M447.94,140.78a1.37,1.37,0,0,0-1.37,1.37v6.55a1.37,1.37,0,0,0,1.37,1.36h6.55a1.36,1.36,0,0,0,1.36-1.36v-6.55a1.36,1.36,0,0,0-1.36-1.37Zm5.18,6.55H449.3v-3.82h3.82Z"/><path d="M506.07,157.7h-1.16v-5.22a8.7,8.7,0,0,0-4-7.33,8.71,8.71,0,0,0,4-7.34V132.6h1.16a1.37,1.37,0,0,0,0-2.73H486.35a1.37,1.37,0,1,0,0,2.73h1.16v5.21a8.71,8.71,0,0,0,4,7.34,8.7,8.7,0,0,0-4,7.33v5.22H443.3a3,3,0,0,1-3-3V101.62a3,3,0,0,1,3-3H452v4.23a1.36,1.36,0,0,0,1.37,1.36h26.19a1.36,1.36,0,0,0,1.37-1.36V98.62h8.73a3,3,0,0,1,3,3v17.6a1.36,1.36,0,1,0,2.72,0v-17.6a5.74,5.74,0,0,0-5.73-5.73H480.9a2.91,2.91,0,0,0-2.84-2.32h-6.69a5.46,5.46,0,0,0-9.75,0h-6.69a2.91,2.91,0,0,0-2.84,2.32H443.3a5.74,5.74,0,0,0-5.73,5.73V154.7a5.74,5.74,0,0,0,5.73,5.73h62.77a1.37,1.37,0,0,0,0-2.73ZM454.76,96.47a.18.18,0,0,1,.17-.17h7.62a1.37,1.37,0,0,0,1.32-1,2.73,2.73,0,0,1,5.26,0,1.36,1.36,0,0,0,1.31,1h7.62a.18.18,0,0,1,.17.17v5H454.76Zm47.42,38.91H490.24V132.6h11.94Zm-11.94,2.73h11.93a6,6,0,0,1-11.93,0Zm11.93,14.07H490.24a6,6,0,0,1,11.93,0Zm-11.93,5.52v-2.79h11.94v2.79Z"/><circle class="cls-5" cx="472.5" cy="125.5" r="68.5"/><polygon class="cls-6" points="809.77 136.71 809.77 159.13 852.63 159.13 852.63 128.51 852.63 116.86 852.63 91.87 809.77 91.87 809.77 106.22 809.77 136.71"/><rect class="cls-7" x="809.58" y="91.87" width="43.05" height="9.84"/><path class="cls-8" d="M794.13,101.71H852"/><rect class="cls-9" x="793.5" y="111.55" width="10.19" height="18.32"/><polygon class="cls-1" points="793.6 121.57 785.85 129.33 789.74 129.33 795.55 123.52 793.6 121.57"/><polygon class="cls-10" points="801.94 121.16 797.57 125.53 795.55 123.52 795.55 123.52 789.74 129.33 793.77 129.33 803.67 129.33 803.67 122.89 801.94 121.16"/><rect class="cls-1" x="795.66" y="120.91" width="6.19" height="2.85" transform="translate(147.44 600.63) rotate(-45)"/><polygon class="cls-11" points="809.84 118.39 809.84 129.88 804.23 129.88 804.23 136.71 816.4 136.71 816.4 118.39 809.84 118.39"/><rect class="cls-12" x="809.77" y="144.37" width="37.53" height="9.29"/><path d="M844.84,95.42H819.39a1.37,1.37,0,0,0,0,2.74h25.45a1.37,1.37,0,1,0,0-2.74Z"/><path d="M804.56,95.42a1.4,1.4,0,0,0-1,.4,1.38,1.38,0,0,0,0,1.94,1.4,1.4,0,0,0,1,.4,1.37,1.37,0,0,0,0-2.74Z"/><path d="M799.53,95.42a1.37,1.37,0,0,0,0,2.74,1.37,1.37,0,1,0,0-2.74Z"/><path d="M809.58,95.42a1.37,1.37,0,1,0,1,.4A1.41,1.41,0,0,0,809.58,95.42Z"/><path d="M852.63,121.26a1.37,1.37,0,0,0,0,2.74,1.4,1.4,0,0,0,1-.4,1.38,1.38,0,0,0,0-1.94A1.4,1.4,0,0,0,852.63,121.26Z"/><path d="M852.63,90.5H792.75a1.37,1.37,0,0,0-1.37,1.37v14.35a1.37,1.37,0,1,0,2.74,0v-3.14h57.15v13.78a1.37,1.37,0,1,0,2.73,0v-25A1.37,1.37,0,0,0,852.63,90.5Zm-58.5,9.84h0V93.23h57.15v7.11Z"/><path d="M852.63,127.14a1.36,1.36,0,0,0-1.36,1.37v29.26H794.12V136.71a1.37,1.37,0,1,0-2.74,0v22.42a1.37,1.37,0,0,0,1.37,1.37h59.88a1.37,1.37,0,0,0,1.37-1.37V128.51A1.37,1.37,0,0,0,852.63,127.14Z"/><path d="M796.71,136.71a1.37,1.37,0,0,0,1.37,1.37H816.4a1.37,1.37,0,0,0,1.37-1.37V118.39A1.37,1.37,0,0,0,816.4,117H805.05v-5.47a1.36,1.36,0,0,0-1.36-1.36H785.37a1.36,1.36,0,0,0-1.37,1.36v18.33a1.36,1.36,0,0,0,1.37,1.36h11.34Zm5.59-8.35a1.15,1.15,0,0,0-.14-.17l-4.67-4.67,2.44-2.44,2.37,2.37Zm-3.69.15h-10l5-5ZM815,119.76v15.58H799.45v-4.1h4.24a1.36,1.36,0,0,0,1.36-1.36V119.76Zm-12.72-6.84v6.68l-1.43-1.42a1.35,1.35,0,0,0-1.93,0l-3.41,3.4-1-1a1.37,1.37,0,0,0-1.93,0l-5.91,5.91V112.92Z"/><path d="M790.15,118.53a1.37,1.37,0,1,0,0-2.74,1.37,1.37,0,0,0,0,2.74Z"/><path d="M796.71,144.37v9.29a1.37,1.37,0,0,0,1.37,1.36H847.3a1.36,1.36,0,0,0,1.37-1.36v-9.29A1.37,1.37,0,0,0,847.3,143H798.08A1.37,1.37,0,0,0,796.71,144.37Zm2.74,1.36h46.48v6.56H799.45Z"/><path d="M823.34,119.76H845.8a1.37,1.37,0,0,0,0-2.74H823.34a1.37,1.37,0,0,0,0,2.74Z"/><path d="M823.34,125.86H845.8a1.37,1.37,0,0,0,0-2.73H823.34a1.37,1.37,0,0,0,0,2.73Z"/><path d="M823.34,132H845.8a1.37,1.37,0,0,0,0-2.73H823.34a1.37,1.37,0,0,0,0,2.73Z"/><path d="M823.34,138.08h9.2a1.37,1.37,0,0,0,0-2.74h-9.2a1.37,1.37,0,0,0,0,2.74Z"/><path d="M845.8,110.19h-27a1.37,1.37,0,1,0,0,2.73h27a1.37,1.37,0,0,0,0-2.73Z"/><path d="M813,112.52a1.36,1.36,0,0,0,0-1.93,1.33,1.33,0,0,0-1-.4,1.37,1.37,0,0,0-1,.4,1.36,1.36,0,0,0,0,1.93,1.37,1.37,0,0,0,1,.4A1.33,1.33,0,0,0,813,112.52Z"/><circle class="cls-5" cx="819" cy="125.5" r="68.5"/><path class="cls-13" d="M159.63,110.19V107a4.37,4.37,0,0,0-4.37-4.37h-4.5v7.61h8.87"/><path class="cls-13" d="M117.93,102.58l-6.65-7.7h-1.82a4.37,4.37,0,0,0-4.38,4.37v10.94H128.6v-7.61Z"/><path class="cls-14" d="M159.63,151.75V114.56a4.37,4.37,0,0,0-4.37-4.37h-45.8a4.38,4.38,0,0,0-4.38,4.37v37.19a4.37,4.37,0,0,0,4.38,4.37h45.8A4.37,4.37,0,0,0,159.63,151.75Z"/><path class="cls-1" d="M130.4,123H143a3.28,3.28,0,0,1,3.28,3.28V140a3.28,3.28,0,0,1-3.28,3.28h-33.9a3.28,3.28,0,0,1-3.28-3.28V126.32a3.28,3.28,0,0,1,3.28-3.28h12.07"/><polygon class="cls-1" points="153.1 110.19 146.12 94.9 112.66 110.19 153.1 110.19"/><path d="M138.37,128.51H113.63a1.37,1.37,0,1,0,0,2.73h24.74a1.37,1.37,0,1,0,0-2.73Z"/><path d="M113.63,135.07a1.37,1.37,0,1,0,0,2.73h19.14a1.37,1.37,0,0,0,0-2.73Z"/><path d="M138.31,135.07h0a1.37,1.37,0,1,0,0,2.73h0a1.37,1.37,0,0,0,0-2.73Z"/><path d="M125.82,124.41h0a1.37,1.37,0,0,0,0-2.74h0a1.37,1.37,0,1,0,0,2.74Z"/><path d="M143,121.67H130.4a1.37,1.37,0,0,0,0,2.74H143a1.91,1.91,0,0,1,1.92,1.91V140a1.92,1.92,0,0,1-1.92,1.92h-33.9a1.92,1.92,0,0,1-1.92-1.92V126.32a1.91,1.91,0,0,1,1.92-1.91h12.07a1.37,1.37,0,0,0,0-2.74H109.05a4.65,4.65,0,0,0-4.65,4.65V140a4.65,4.65,0,0,0,4.65,4.65H143A4.65,4.65,0,0,0,147.6,140V126.32A4.65,4.65,0,0,0,143,121.67Z"/><path d="M155.26,101.21h-4.5l-.24,0-3.16-6.9a1.38,1.38,0,0,0-1.81-.68l-16.62,7.6a1.86,1.86,0,0,0-.33,0h-10L112.31,94a1.35,1.35,0,0,0-1-.47H96.74A5.75,5.75,0,0,0,91,99.25v52.5a5.75,5.75,0,0,0,5.74,5.74h58.52a5.75,5.75,0,0,0,5.74-5.74V107A5.75,5.75,0,0,0,155.26,101.21Zm0,2.73a3,3,0,0,1,3,3v2.72a5.73,5.73,0,0,0-3-.85H154l-2.22-4.88ZM151,108.82H119l26.49-12.11ZM96.74,96.24h13.91l6.25,7.23a1.37,1.37,0,0,0,1,.47H123l-10.67,4.88H96.74a5.73,5.73,0,0,0-3,.85V99.25A3,3,0,0,1,96.74,96.24Zm61.53,55.51a3,3,0,0,1-3,3H96.74a3,3,0,0,1-3-3V114.56a3,3,0,0,1,3-3h58.52a3,3,0,0,1,3,3v37.19Z"/><circle class="cls-5" cx="126" cy="125.5" r="68.5"/><line class="cls-15" x1="194.5" y1="126" x2="403.5" y2="126"/><line class="cls-15" y1="126.5" x2="57" y2="126.5"/><line class="cls-15" x1="888" y1="126.5" x2="945" y2="126.5"/><line class="cls-15" x1="542" y1="126.5" x2="751" y2="126.5"/><path class="cls-16" d="M145.19,59.73l1.87-1.66"/><path class="cls-17" d="M156.54,50.24a226.07,226.07,0,0,1,284.13,5"/><path class="cls-16" d="M445.32,59.3c.63.55,1.25,1.11,1.86,1.67"/><path class="cls-16" d="M797.68,190.24l-1.87,1.65"/><path class="cls-17" d="M786.34,199.73a226.08,226.08,0,0,1-284.14-5"/><path class="cls-16" d="M497.55,190.67,495.69,189"/></g></g></svg>