<svg id="Layer_1" data-name="Layer 1" xmlns="http://www.w3.org/2000/svg" viewBox="0 0 500 500"><defs><style>.cls-1{fill:#5358a1;}.cls-2{fill:#17afdc;}.cls-3{fill:#dbe6fd;}.cls-4{fill:none;}.cls-5{fill:#fff;}.cls-6{fill:#29abe2;}.cls-7{fill:#fccc38;}</style></defs><title>lego_bg</title><path class="cls-1" d="M206.49,395.94V371.77h-29V362.7a14.54,14.54,0,0,0-29,0v9.07h-29v72.52h87V420.12l-9.67,1.51a13.63,13.63,0,1,1,0-27.2Z"/><path class="cls-1" d="M293.51,395.94V371.77h29V362.7a14.54,14.54,0,0,1,29,0v9.07h29v72.52h-87V420.12l9.67,1.51a13.63,13.63,0,1,0,0-27.2Z"/><path class="cls-2" d="M206.49,347.59v24.18h-29V362.7a14.54,14.54,0,0,0-29,0v9.07h-29V299.25h87v24.17l9.67-1.51a13.63,13.63,0,1,1,0,27.2Z"/><path class="cls-2" d="M293.51,347.59v24.18h29V362.7a14.54,14.54,0,0,1,29,0v9.07h29V299.25h-87v24.17l-9.67-1.51a13.63,13.63,0,1,0,0,27.2Z"/><path class="cls-3" d="M293.51,395.94V371.77h-29v9.06a14.53,14.53,0,0,1-29,0v-9.06h-29v24.17l-9.67-1.51a13.63,13.63,0,1,0,0,27.2l9.67-1.51v24.17h87V420.12l9.67,1.51a13.63,13.63,0,1,0,0-27.2Z"/><path class="cls-4" d="M304.55,415.42A7.4,7.4,0,0,0,309,402.47a7.33,7.33,0,0,0-5.3-1.83l-9.2,1.44a6.23,6.23,0,0,1-5.35-1.75,6.16,6.16,0,0,1-1.81-4.39V378h-16.6v2.85a20.73,20.73,0,0,1-41.42.07V378h-16.6v18a6.19,6.19,0,0,1-7.16,6.14l-9.2-1.44a6.46,6.46,0,0,0-.88,0,7.4,7.4,0,0,0,.88,14.78l9.2-1.44a7.48,7.48,0,0,1,1-.07,6.2,6.2,0,0,1,6.2,6.21v18h74.62v-18a6.2,6.2,0,0,1,2.17-4.72h0a6.27,6.27,0,0,1,5-1.42l9.2,1.44A6.46,6.46,0,0,0,304.55,415.42Z"/><path class="cls-4" d="M345.33,371.77v-9a8.35,8.35,0,0,0-13.6-5.56,8.29,8.29,0,0,0-3,5.56v9a6.21,6.21,0,0,1-6.2,6.21H299.72v10.71l2.51-.39a6.16,6.16,0,0,1,.95-.07c.57,0,1.21,0,1.84,0a19.82,19.82,0,0,1-1.9,39.6,5.08,5.08,0,0,1-.89-.07l-2.51-.39v10.72h74.62V378H351.53A6.21,6.21,0,0,1,345.33,371.77Z"/><path class="cls-4" d="M195,427.83a19.82,19.82,0,0,1,1.9-39.6,5.78,5.78,0,0,1,.89.07l2.51.39V378h-22.8a6.21,6.21,0,0,1-6.21-6.21V362.7a7.94,7.94,0,0,0-8.24-7.39h-.12a7.91,7.91,0,0,0-8.24,7.47v9a6.21,6.21,0,0,1-6.2,6.21H125.66v60.11h74.62V427.37l-2.51.39a6,6,0,0,1-1,.08C196.25,427.87,195.61,427.86,195,427.83Z"/><path class="cls-4" d="M163,342.9h.46a20.32,20.32,0,0,1,20.22,19.78v2.89h16.6v-18a6.08,6.08,0,0,1,.07-.95,6.22,6.22,0,0,1,7.09-5.18l9.2,1.44a6.46,6.46,0,0,0,.88,0,7.41,7.41,0,0,0-.88-14.79l-9.2,1.44a6.09,6.09,0,0,1-.95.08,6.22,6.22,0,0,1-6.21-6.21v-18H125.66v60.11h16.6V362.7a20.34,20.34,0,0,1,20.28-19.81Z"/><path class="cls-4" d="M283.36,328.11a8.61,8.61,0,0,0-.88,0,7.41,7.41,0,0,0-6.92,7.86,7.42,7.42,0,0,0,7.8,6.92l9.2-1.44a6.08,6.08,0,0,1,.95-.07,6.21,6.21,0,0,1,6.21,6.2v18h16.6V362.7a20.73,20.73,0,0,1,41.42-.06v2.92h16.6V305.45H299.72v18a6.21,6.21,0,0,1-7.16,6.13Z"/><path d="M380.55,295.78h-87a3.48,3.48,0,0,0-3.46,3.46v20.14l-5.67-.89a3.19,3.19,0,0,0-.54,0,17.08,17.08,0,1,0-1.7,34.12,15,15,0,0,0,1.64,0,5,5,0,0,0,.6,0l5.67-.89v16.67H264.51a3.47,3.47,0,0,0-3.47,3.46V381a11.12,11.12,0,0,1-12.13,9.95A11.13,11.13,0,0,1,239,381v-9.2a3.46,3.46,0,0,0-3.46-3.46H210V351.64l5.67.89a4.73,4.73,0,0,0,.54,0,17.09,17.09,0,1,0,1.7-34.13c-.55,0-1.1,0-1.64,0a4.83,4.83,0,0,0-.6.05l-5.67.89V299.24a3.47,3.47,0,0,0-3.46-3.46h-87a3.48,3.48,0,0,0-3.47,3.46V444.29a3.41,3.41,0,0,0,1,2.45,3.45,3.45,0,0,0,2.45,1H380.54a3.48,3.48,0,0,0,3.47-3.47v-145a3.48,3.48,0,0,0-3.46-3.46Zm-257.63,6.93H203v20.71a3.47,3.47,0,0,0,3.47,3.46,3.23,3.23,0,0,0,.53,0l9.39-1.46a10.15,10.15,0,1,1,1.28,20.25,9.11,9.11,0,0,1-1.28,0h-.13L207,344.17a3.47,3.47,0,0,0-4,2.89,4.91,4.91,0,0,0,0,.53v20.72H180.94V362.7a17.58,17.58,0,0,0-17.54-17.06h-.8a17.6,17.6,0,0,0-17.6,17.1v5.57H122.92ZM203,440.83h-80.1v-65.6h25.55a3.46,3.46,0,0,0,3.46-3.46V362.7a11.08,11.08,0,0,1,22.08-.07v9.14a3.47,3.47,0,0,0,3.46,3.46H203V391.9l-5.67-.89a3.08,3.08,0,0,0-.53,0,17.08,17.08,0,1,0-1.71,34.12,15,15,0,0,0,1.64,0,3.54,3.54,0,0,0,.6,0l5.67-.89Zm88.24-23.34a3.46,3.46,0,0,0-1.21,2.63v20.71H210V420.12a3.47,3.47,0,0,0-4-3.42l-9.4,1.46a10.15,10.15,0,0,1-1.28-20.26c.43,0,.86,0,1.28,0l.13,0,9.26,1.45a3.47,3.47,0,0,0,4-2.89,4.9,4.9,0,0,0,0-.54V375.23H232v5.6a18,18,0,0,0,35.94-.06v-5.54h22.08v20.71a3.41,3.41,0,0,0,1,2.45,3.47,3.47,0,0,0,3,1l9.39-1.47a10.15,10.15,0,1,1,1.28,20.26,9.11,9.11,0,0,1-1.28,0h-.13l-9.26-1.45A3.45,3.45,0,0,0,291.26,417.49Zm85.82,23.34H297V424.16l5.67.89a3.08,3.08,0,0,0,.53,0,17.11,17.11,0,0,0,17.95-16.24A17.09,17.09,0,0,0,304.89,391a15,15,0,0,0-1.64,0,3.59,3.59,0,0,0-.61,0l-5.66.89V375.23h25.55a3.47,3.47,0,0,0,3.46-3.46v-9.2a11.09,11.09,0,0,1,22.07,0v9.2a3.46,3.46,0,0,0,3.46,3.46h25.55Zm0-72.52H355V362.7a18,18,0,0,0-35.94.07v5.54H297V347.59a3.47,3.47,0,0,0-3.47-3.46,3.23,3.23,0,0,0-.53,0l-9.39,1.46a10.15,10.15,0,1,1-1.28-20.25,9.11,9.11,0,0,1,1.28,0h.13l9.26,1.45a3.44,3.44,0,0,0,2.58-.62,3.51,3.51,0,0,0,1.38-2.27,4.73,4.73,0,0,0,0-.53V302.71h80.1Z"/><path class="cls-5" d="M384.93,294.86a6.13,6.13,0,0,0-4.38-1.82h-87a6.21,6.21,0,0,0-6.2,6.2v16.93l-2.51-.4a8.05,8.05,0,0,0-.89-.07,19.83,19.83,0,0,0-1.9,39.61c.63,0,1.27,0,1.83,0a6,6,0,0,0,1-.07l2.51-.39v10.71h-22.8a6.22,6.22,0,0,0-6.21,6.21v9a8.35,8.35,0,0,1-16.6,0v-9a6.22,6.22,0,0,0-6.21-6.21h-22.8V354.85l2.51.39a6.18,6.18,0,0,0,.89.07A19.83,19.83,0,0,0,218,315.7c-.63,0-1.27,0-1.83,0a6,6,0,0,0-1,.08l-2.51.39V299.25a6.2,6.2,0,0,0-6.2-6.21h-87a6.21,6.21,0,0,0-6.21,6.2V444.29a6.22,6.22,0,0,0,6.21,6.21H380.54a6.22,6.22,0,0,0,6.21-6.21v-145A6.13,6.13,0,0,0,384.93,294.86Zm.45,149.43h0a4.84,4.84,0,0,1-4.84,4.83H119.45a4.84,4.84,0,0,1-4.83-4.84v-145h0a4.84,4.84,0,0,1,4.84-4.83h87a4.84,4.84,0,0,1,4.83,4.84v18.52l4.09-.64a4.74,4.74,0,0,1,.75-.06c.58,0,1.18,0,1.77,0a18.46,18.46,0,0,1-1.77,36.87,4.74,4.74,0,0,1-.75-.06l-4.09-.64v13.69H235.5a4.84,4.84,0,0,1,4.83,4.84v9.06a9.72,9.72,0,0,0,19.34,0v-9.06h0a4.84,4.84,0,0,1,4.83-4.84h24.18V353.24l-4.09.64a4.74,4.74,0,0,1-.75.06,17.42,17.42,0,0,1-1.77,0,18.46,18.46,0,0,1,1.77-36.87,4.74,4.74,0,0,1,.75.06l4.09.64V299.25h0a4.83,4.83,0,0,1,4.83-4.83h87a4.84,4.84,0,0,1,4.83,4.84Z"/><path class="cls-5" d="M292.77,328.2l-9.27-1.45a10.28,10.28,0,0,0-1.11,0,8.78,8.78,0,0,0,1.11,17.52l9.27-1.45a4.62,4.62,0,0,1,.74-.06,4.83,4.83,0,0,1,4.84,4.83v19.34h19.34V362.7a19.36,19.36,0,0,1,38.68,0v4.23h19.34V304.08H298.35v19.34a4.74,4.74,0,0,1-.06.75A4.84,4.84,0,0,1,292.77,328.2Zm4.4.23a6.13,6.13,0,0,0,2.55-5v-18h74.62v60.11h-16.6v-2.92a20.73,20.73,0,0,0-41.42.06v2.86h-16.6v-18a6.21,6.21,0,0,0-6.21-6.2,6.08,6.08,0,0,0-.95.07l-9.2,1.44a7.42,7.42,0,0,1-7.8-6.92,7.41,7.41,0,0,1,6.92-7.86,8.61,8.61,0,0,1,.88,0l9.2,1.44A6.11,6.11,0,0,0,297.17,328.43Z"/><path class="cls-5" d="M195.05,426.46a18.45,18.45,0,1,1,1.77-36.86,6.13,6.13,0,0,1,.74,0l4.09.65V376.6H177.47a4.83,4.83,0,0,1-4.83-4.83V362.7a9.72,9.72,0,0,0-19.34,0v9.07h0a4.83,4.83,0,0,1-4.83,4.83H124.29v62.86h77.36V425.77l-4.09.64a4.6,4.6,0,0,1-.74,0A17.42,17.42,0,0,1,195.05,426.46Zm2.72,1.3,2.51-.39v10.72H125.66V378h22.81a6.21,6.21,0,0,0,6.2-6.21v-9a7.91,7.91,0,0,1,8.24-7.47H163a7.94,7.94,0,0,1,8.24,7.39v9.07a6.21,6.21,0,0,0,6.21,6.21h22.8v10.71l-2.51-.39a5.78,5.78,0,0,0-.89-.07,19.82,19.82,0,0,0-1.9,39.6c.63,0,1.27,0,1.84,0A6,6,0,0,0,197.77,427.76Z"/><path class="cls-5" d="M163,344.27a18.92,18.92,0,0,1,19.34,18.43v4.23h19.34V347.59a4.62,4.62,0,0,1,.06-.74,4.82,4.82,0,0,1,5.52-4l9.27,1.45a10.28,10.28,0,0,0,1.11,0,8.78,8.78,0,0,0-1.11-17.52l-9.27,1.45a4.62,4.62,0,0,1-.74.06,4.84,4.84,0,0,1-4.84-4.84V304.08H124.29v62.85h19.34V362.7A18.93,18.93,0,0,1,163,344.27ZM142.26,362.7v2.86h-16.6V305.45h74.62v18a6.22,6.22,0,0,0,6.21,6.21,6.09,6.09,0,0,0,.95-.08l9.2-1.44a7.41,7.41,0,0,1,.88,14.79,6.46,6.46,0,0,1-.88,0l-9.2-1.44a6.22,6.22,0,0,0-7.09,5.18,6.08,6.08,0,0,0-.07.95v18h-16.6v-2.89a20.32,20.32,0,0,0-20.22-19.78h-.92A20.34,20.34,0,0,0,142.26,362.7Z"/><path class="cls-5" d="M145,362.74a17.6,17.6,0,0,1,17.6-17.1h.8a17.58,17.58,0,0,1,17.54,17.06v5.61H203V347.59a4.91,4.91,0,0,1,0-.53,3.47,3.47,0,0,1,4-2.89l9.26,1.45h.13a9.11,9.11,0,0,0,1.28,0,10.15,10.15,0,1,0-1.28-20.25L207,326.84a3.23,3.23,0,0,1-.53,0,3.47,3.47,0,0,1-3.47-3.46V302.71h-80.1v65.6H145Z"/><path class="cls-5" d="M297,323.42a4.73,4.73,0,0,1,0,.53,3.51,3.51,0,0,1-1.38,2.27,3.44,3.44,0,0,1-2.58.62l-9.26-1.45h-.13a9.11,9.11,0,0,0-1.28,0,10.15,10.15,0,1,0,1.28,20.25l9.39-1.46a3.23,3.23,0,0,1,.53,0,3.47,3.47,0,0,1,3.47,3.46v20.72h22.08v-5.54A18,18,0,0,1,355,362.7v5.61h22.08v-65.6H297Z"/><path class="cls-5" d="M380.55,294.41h-87a4.83,4.83,0,0,0-4.83,4.83h0v18.52l-4.09-.64a4.74,4.74,0,0,0-.75-.06,18.46,18.46,0,0,0-1.77,36.87,17.42,17.42,0,0,0,1.77,0,4.74,4.74,0,0,0,.75-.06l4.09-.64v13.69H264.5a4.84,4.84,0,0,0-4.83,4.84h0v9.06a9.72,9.72,0,0,1-19.34,0v-9.06a4.84,4.84,0,0,0-4.83-4.84H211.32V353.24l4.09.64a4.74,4.74,0,0,0,.75.06,18.46,18.46,0,0,0,1.77-36.87c-.59,0-1.19,0-1.77,0a4.74,4.74,0,0,0-.75.06l-4.09.64V299.25a4.84,4.84,0,0,0-4.83-4.84h-87a4.84,4.84,0,0,0-4.84,4.83h0v145a4.84,4.84,0,0,0,4.83,4.84H380.54a4.84,4.84,0,0,0,4.84-4.83h0v-145A4.84,4.84,0,0,0,380.55,294.41ZM384,444.29a3.48,3.48,0,0,1-3.47,3.47H119.46a3.45,3.45,0,0,1-2.45-1,3.41,3.41,0,0,1-1-2.45v-145a3.48,3.48,0,0,1,3.47-3.46h87a3.47,3.47,0,0,1,3.46,3.46v20.14l5.67-.89a4.83,4.83,0,0,1,.6-.05c.54,0,1.09,0,1.64,0a17.09,17.09,0,1,1-1.7,34.13,4.73,4.73,0,0,1-.54,0l-5.67-.89v16.67H235.5a3.46,3.46,0,0,1,3.46,3.46V381a11.13,11.13,0,0,0,9.95,9.95A11.12,11.12,0,0,0,261,381v-9.2a3.47,3.47,0,0,1,3.47-3.46h25.54V351.64l-5.67.89a5,5,0,0,1-.6,0,15,15,0,0,1-1.64,0,17.08,17.08,0,1,1,1.7-34.12,3.19,3.19,0,0,1,.54,0l5.67.89V299.24a3.48,3.48,0,0,1,3.46-3.46h87a3.48,3.48,0,0,1,3.46,3.46Z"/><path class="cls-5" d="M196.75,425.09a15,15,0,0,1-1.64,0A17.08,17.08,0,1,1,196.82,391a3.08,3.08,0,0,1,.53,0l5.67.89V375.23H177.47a3.47,3.47,0,0,1-3.46-3.46v-9.14a11.08,11.08,0,0,0-22.08.07v9.07a3.46,3.46,0,0,1-3.46,3.46H122.92v65.6H203V424.16l-5.67.89A3.54,3.54,0,0,1,196.75,425.09Z"/><path class="cls-6" d="M145,362.74a17.6,17.6,0,0,1,17.6-17.1h.8a17.58,17.58,0,0,1,17.54,17.06v5.61H203V347.59a4.91,4.91,0,0,1,0-.53,3.47,3.47,0,0,1,4-2.89l9.26,1.45h.13a9.11,9.11,0,0,0,1.28,0,10.15,10.15,0,1,0-1.28-20.25L207,326.84a3.23,3.23,0,0,1-.53,0,3.47,3.47,0,0,1-3.47-3.46V302.71h-80.1v65.6H145Z"/><path class="cls-7" d="M216.16,220.74a13.83,13.83,0,1,1,1.34,27.62c-.45,0-.9,0-1.34,0l-9.67-1.53v23.41h29V280.6a14.52,14.52,0,0,0,29,0V270.24h29V246.83l-9.67,1.53a13.83,13.83,0,0,1-1.34-27.62,10,10,0,0,1,1.34,0l9.67,1.53V197.71h-87v24.56Z"/><path class="cls-4" d="M287.31,215V203.92H212.69V215l2.49-.39a8.09,8.09,0,0,1,1-.08,20,20,0,0,1,1.41,40q-.73,0-1.47,0a5.16,5.16,0,0,1-.93-.08l-2.48-.39V264h22.8a6.21,6.21,0,0,1,6.21,6.2v10.31a8.33,8.33,0,0,0,8.91,7.64,8.38,8.38,0,0,0,7.69-7.64v-10.3a6.21,6.21,0,0,1,6.2-6.21h22.81V254.1l-2.49.39a3.64,3.64,0,0,1-1,.08,20,20,0,0,1-1.41-40q.74,0,1.47,0a4.55,4.55,0,0,1,.93.08Z"/><path d="M283.71,224.22l9.26,1.47a3.48,3.48,0,0,0,4-3.42V197.71a3.47,3.47,0,0,0-3.47-3.46h-87a3.47,3.47,0,0,0-3.47,3.46v24.56a3.41,3.41,0,0,0,0,.55,3.46,3.46,0,0,0,4,2.87l9.42-1.49h.79a10.36,10.36,0,0,1-.79,20.7l-.16,0L207,243.41a3.48,3.48,0,0,0-4,3.42v23.41a3.47,3.47,0,0,0,3.46,3.46H232v6.9A17.7,17.7,0,0,0,250,297.87h.34A17.69,17.69,0,0,0,268,280.57V273.7h25.54a3.48,3.48,0,0,0,3.47-3.46V246.83a3.41,3.41,0,0,0-.05-.55,3.46,3.46,0,0,0-4-2.87l-9.42,1.49h-.79a10.36,10.36,0,0,1,.79-20.7Zm-1.18-6.95a17.29,17.29,0,1,0,1.26,34.56,5,5,0,0,0,.59,0l5.67-.9v15.88H264.51a3.47,3.47,0,0,0-3.47,3.46V280.7a11.14,11.14,0,0,1-10.22,10.22l-.84,0a11.08,11.08,0,0,1-11-10.25V270.24a3.48,3.48,0,0,0-3.47-3.47H210V250.89l5.66.89c.19,0,.36,0,.54.05.48,0,.9,0,1.32,0a17.29,17.29,0,1,0-1.26-34.56,5,5,0,0,0-.59,0l-5.67.9v-17h80.1v17l-5.66-.89a4.71,4.71,0,0,0-.54,0C283.37,217.25,283,217.26,282.53,217.27Z"/><path class="cls-7" d="M245.17,159h9.66v24.18h-9.66Z"/><path class="cls-7" d="M174.9,174.56l7.3-6.35,14.5,16.65-7.29,6.36Z"/><path class="cls-7" d="M302,184.39l16.65-14.51,6.35,7.29-16.65,14.51Z"/><path class="cls-7" d="M167.81,231.56H192v9.67H167.81Z"/><path class="cls-7" d="M308,231.56h24.17v9.67H308Z"/></svg>